<svg width="48" height="48" viewBox="0 0 48 48" fill="none" xmlns="http://www.w3.org/2000/svg">
<path d="M24 2C36.1503 2 46 11.8497 46 24C46 25.1046 45.1046 26 44 26C42.8954 26 42 25.1046 42 24C42 14.0589 33.9411 6 24 6C14.0589 6 6 14.0589 6 24C6 33.9411 14.0589 42 24 42C25.1046 42 26 42.8954 26 44C26 45.1046 25.1046 46 24 46C11.8497 46 2 36.1503 2 24C2 11.8497 11.8497 2 24 2Z" fill="currentColor"/>
<path d="M40 30C41.1046 30 42 30.8954 42 32V36H46C47.1046 36 48 36.8954 48 38C48 39.1046 47.1046 40 46 40H42V44C42 45.1046 41.1046 46 40 46C38.8954 46 38 45.1046 38 44V40H34C32.8954 40 32 39.1046 32 38C32 36.8954 32.8954 36 34 36H38V32C38 30.8954 38.8954 30 40 30Z" fill="currentColor"/>
<path d="M30.5928 27.999C31.1459 27.0432 32.3702 26.7158 33.3262 27.2686C34.282 27.8216 34.6082 29.045 34.0557 30.001C31.9838 33.5826 28.1063 36 23.6621 36C19.218 35.9999 15.3404 33.5825 13.2686 30.001C12.7161 29.045 13.0432 27.8215 13.999 27.2686C14.955 26.7159 16.1784 27.0433 16.7314 27.999C18.1177 30.3951 20.7038 31.9999 23.6621 32C26.6205 32 29.2064 30.3952 30.5928 27.999Z" fill="currentColor"/>
<path d="M17.5 15C18.8807 15 20 16.1193 20 17.5V20.5C20 21.8807 18.8807 23 17.5 23C16.1193 23 15 21.8807 15 20.5V17.5C15 16.1193 16.1193 15 17.5 15Z" fill="currentColor"/>
<path d="M30.5 15C31.8807 15 33 16.1193 33 17.5V20.5C33 21.8807 31.8807 23 30.5 23C29.1193 23 28 21.8807 28 20.5V17.5C28 16.1193 29.1193 15 30.5 15Z" fill="currentColor"/>
</svg>
