<svg width="48" height="48" viewBox="0 0 48 48" fill="none" xmlns="http://www.w3.org/2000/svg">
<path d="M32.0938 12.1445C32.4948 12.1445 33.1784 12.2083 34.1445 12.3359C35.1107 12.4635 36.168 12.8281 37.3164 13.4297C38.4831 14.013 39.5404 14.9883 40.4883 16.3555C40.4336 16.4102 40.1693 16.6107 39.6953 16.957C39.2214 17.2852 38.6927 17.7773 38.1094 18.4336C37.526 19.0716 37.0156 19.8919 36.5781 20.8945C36.1406 21.8789 35.9219 23.0547 35.9219 24.4219C35.9219 25.9896 36.1953 27.3203 36.7422 28.4141C37.3073 29.5078 37.9544 30.3919 38.6836 31.0664C39.431 31.7227 40.0872 32.2057 40.6523 32.5156C41.2357 32.8255 41.5456 32.9896 41.582 33.0078C41.5638 33.0807 41.3268 33.7279 40.8711 34.9492C40.4336 36.1706 39.7044 37.5286 38.6836 39.0234C37.7904 40.3177 36.8242 41.5117 35.7852 42.6055C34.7643 43.6992 33.5339 44.2461 32.0938 44.2461C31.1276 44.2461 30.3346 44.1094 29.7148 43.8359C29.0951 43.5443 28.457 43.2617 27.8008 42.9883C27.1445 42.6966 26.2604 42.5508 25.1484 42.5508C24.0729 42.5508 23.1706 42.6966 22.4414 42.9883C21.7305 43.2799 21.0469 43.5716 20.3906 43.8633C19.7526 44.1549 18.9961 44.3008 18.1211 44.3008C16.7904 44.3008 15.6237 43.7721 14.6211 42.7148C13.6185 41.6576 12.5885 40.3906 11.5312 38.9141C10.3099 37.1641 9.26172 35.0312 8.38672 32.5156C7.52995 29.9818 7.10156 27.4297 7.10156 24.8594C7.10156 22.1068 7.62109 19.8008 8.66016 17.9414C9.69922 16.0638 11.0299 14.651 12.6523 13.7031C14.293 12.737 15.9883 12.2539 17.7383 12.2539C18.668 12.2539 19.543 12.4089 20.3633 12.7188C21.1836 13.0104 21.9492 13.3112 22.6602 13.6211C23.3893 13.931 24.0456 14.0859 24.6289 14.0859C25.194 14.0859 25.8503 13.9219 26.5977 13.5938C27.3451 13.2656 28.1836 12.9466 29.1133 12.6367C30.043 12.3086 31.0365 12.1445 32.0938 12.1445ZM30.5898 8.67188C29.8789 9.52865 28.9857 10.2487 27.9102 10.832C26.8346 11.3971 25.8138 11.6797 24.8477 11.6797C24.6471 11.6797 24.4557 11.6615 24.2734 11.625C24.2552 11.5703 24.237 11.4701 24.2188 11.3242C24.2005 11.1784 24.1914 11.0234 24.1914 10.8594C24.1914 9.76562 24.4284 8.70833 24.9023 7.6875C25.3763 6.64844 25.9141 5.79167 26.5156 5.11719C27.2812 4.20573 28.2474 3.44922 29.4141 2.84766C30.5807 2.24609 31.6927 1.92708 32.75 1.89062C32.8047 2.1276 32.832 2.41016 32.832 2.73828C32.832 3.83203 32.6224 4.89844 32.2031 5.9375C31.7839 6.95833 31.2461 7.86979 30.5898 8.67188Z" fill="currentColor"/>
</svg>
