<svg width="48" height="48" viewBox="0 0 48 48" fill="none" xmlns="http://www.w3.org/2000/svg">
<path fill-rule="evenodd" clip-rule="evenodd" d="M24 2C36.1503 2 46 11.8497 46 24C46 36.1503 36.1503 46 24 46C11.8497 46 2 36.1503 2 24C2 11.8497 11.8497 2 24 2ZM23.2812 14.4121C22.5186 13.6674 21.2821 13.6673 20.5195 14.4121L13.0508 21.707C11.8457 22.8841 11.8457 24.823 13.0508 26L20.5195 33.2949C21.2821 34.0395 22.5187 34.0396 23.2812 33.2949C24.0438 32.5501 24.0436 31.3426 23.2812 30.5977L18.4248 25.8535H33.8535C34.9579 25.8534 35.8534 24.9579 35.8535 23.8535C35.8535 22.749 34.958 21.8537 33.8535 21.8535H18.4248L23.2812 17.1094C24.0438 16.3646 24.0436 15.157 23.2812 14.4121Z" fill="currentColor"/>
</svg>
