<svg width="48" height="48" viewBox="0 0 48 48" fill="none" xmlns="http://www.w3.org/2000/svg">
<path fill-rule="evenodd" clip-rule="evenodd" d="M24 2C36.1503 2 46 11.8497 46 24C46 36.1503 36.1503 46 24 46C11.8497 46 2 36.1503 2 24C2 11.8497 11.8497 2 24 2ZM27.4805 14.4121C26.7179 13.6673 25.4814 13.6674 24.7188 14.4121C23.9564 15.157 23.9562 16.3646 24.7188 17.1094L29.5752 21.8535H14.1465C13.042 21.8537 12.1465 22.749 12.1465 23.8535C12.1466 24.9579 13.0421 25.8534 14.1465 25.8535H29.5752L24.7188 30.5977C23.9564 31.3426 23.9562 32.5501 24.7188 33.2949C25.4813 34.0396 26.7179 34.0395 27.4805 33.2949L34.9492 26C36.1543 24.823 36.1543 22.8841 34.9492 21.707L27.4805 14.4121Z" fill="currentColor"/>
</svg>
