<svg width="48" height="48" viewBox="0 0 48 48" fill="none" xmlns="http://www.w3.org/2000/svg">
<path d="M39 43.9998C40.1043 43.9998 40.9996 43.1041 41 41.9998C41 40.8952 40.1046 39.9998 39 39.9998H9C7.89543 39.9998 7 40.8952 7 41.9998C7.00038 43.1041 7.89567 43.9998 9 43.9998H39Z" fill="currentColor"/>
<path d="M21.8711 35.1131C23.0443 36.2949 24.9555 36.2946 26.1289 35.1131L40.4092 20.7283C41.1969 19.9345 41.1971 18.6471 40.4092 17.8533C39.6211 17.0595 38.3427 17.0595 37.5547 17.8533L26 29.4939V5.99979C25.9999 4.89539 25.1044 3.99988 24 3.99979C22.8957 4.00001 22.0001 4.89547 22 5.99979V29.4939L10.4443 17.8533C9.65633 17.0599 8.37876 17.0598 7.59082 17.8533C6.80325 18.6472 6.80303 19.9346 7.59082 20.7283L21.8711 35.1131Z" fill="currentColor"/>
</svg>
