<svg width="48" height="48" viewBox="0 0 48 48" fill="none" xmlns="http://www.w3.org/2000/svg">
<path d="M12.3728 24.5586C13.1354 23.8139 14.3719 23.8139 15.1345 24.5586C15.897 25.3035 15.897 26.511 15.1345 27.2559L10.2781 32H40.7068C41.8112 32.0002 42.7068 32.8956 42.7068 34C42.7068 35.1045 41.8112 35.9999 40.7068 36H10.2781L15.1345 40.7442C15.897 41.489 15.897 42.6966 15.1345 43.4414C14.3719 44.1861 13.1354 44.1861 12.3728 43.4414L4.90407 36.1465C3.69901 34.9695 3.69901 33.0306 4.90407 31.8535L12.3728 24.5586Z" fill="currentColor"/>
<path d="M32.572 4.55862C33.3347 3.81394 34.5712 3.81389 35.3338 4.55862L42.8025 11.8535C44.0076 13.0306 44.0076 14.9695 42.8025 16.1465L35.3338 23.4414C34.5712 24.1861 33.3347 24.1861 32.572 23.4414C31.8096 22.6966 31.8096 21.489 32.572 20.7442L37.4285 16H6.99977C5.89533 15.9999 4.99979 15.1045 4.99977 14C4.99978 12.8955 5.89532 12.0002 6.99977 12H37.4285L32.572 7.25589C31.8096 6.51102 31.8096 5.30349 32.572 4.55862Z" fill="currentColor"/>
</svg>
