<svg width="48" height="48" viewBox="0 0 48 48" fill="none" xmlns="http://www.w3.org/2000/svg">
<path d="M20.3721 14.5586C21.1346 13.8138 22.3711 13.8141 23.1338 14.5586C23.8964 15.3035 23.8964 16.511 23.1338 17.2559L18.2773 22H33.7061C34.8106 22 35.7061 22.8954 35.7061 24C35.706 25.1046 34.8106 26 33.7061 26H18.2773L23.1338 30.7441C23.8964 31.489 23.8964 32.6965 23.1338 33.4414C22.3711 34.1859 21.1346 34.1862 20.3721 33.4414L12.9033 26.1465C11.6986 24.9695 11.6986 23.0305 12.9033 21.8535L20.3721 14.5586Z" fill="currentColor"/>
<path fill-rule="evenodd" clip-rule="evenodd" d="M24 2C36.1503 2 46 11.8497 46 24C46 36.1503 36.1503 46 24 46C11.8497 46 2 36.1503 2 24C2 11.8497 11.8497 2 24 2ZM24 6C14.0589 6 6 14.0589 6 24C6 33.9411 14.0589 42 24 42C33.9411 42 42 33.9411 42 24C42 14.0589 33.9411 6 24 6Z" fill="currentColor"/>
</svg>
