<svg width="48" height="48" viewBox="0 0 48 48" fill="none" xmlns="http://www.w3.org/2000/svg">
<path d="M34.1915 6.41113C32.3559 5.28201 30.0001 6.61199 30.0001 8.77734V12H19.5001C11.492 12.0001 5.00011 18.4919 5.00011 26.5C5.00011 34.5081 11.492 40.9999 19.5001 41H28.0001C29.1047 41 30.0001 40.1046 30.0001 39C30.0001 37.8954 29.1047 37 28.0001 37H19.5001C13.7012 36.9999 9.00011 32.299 9.00011 26.5C9.00011 20.701 13.7012 16.0001 19.5001 16H30.0001V19.2227C30.0001 21.388 32.3559 22.718 34.1915 21.5889L42.6817 16.3662C44.4394 15.285 44.4394 12.715 42.6817 11.6338L34.1915 6.41113Z" fill="currentColor"/>
</svg>
