<svg width="48" height="48" viewBox="0 0 48 48" fill="none" xmlns="http://www.w3.org/2000/svg">
<path d="M23.7835 6C34.3722 6.00024 42.9993 14.483 42.9993 25C42.9993 35.517 34.3722 43.9998 23.7835 44C15.9151 43.9998 9.14005 39.3213 6.17017 32.6094C5.72341 31.5995 6.17998 30.4178 7.1897 29.9707C8.19976 29.5238 9.38138 29.9812 9.82838 30.9912C12.1718 36.287 17.5329 39.9998 23.7835 40C32.2109 39.9998 38.9993 33.2604 38.9993 25C38.9993 16.7396 32.2109 10.0002 23.7835 10C19.7976 10.0001 16.1739 11.5107 13.4631 13.9785L15.6663 16.1816C17.0058 17.5214 16.4011 19.7716 14.5901 20.1855L6.21217 22.0996C4.47795 22.4959 2.88809 20.9061 3.28443 19.1719L5.19947 10.7949C5.61339 8.98378 7.86363 8.379 9.20338 9.71875L10.6321 11.1475C14.0714 7.95433 18.6988 6.00011 23.7835 6Z" fill="currentColor"/>
</svg>
