<svg width="48" height="48" viewBox="0 0 48 48" fill="none" xmlns="http://www.w3.org/2000/svg">
<path d="M21.8711 12.8867C23.0443 11.7049 24.9555 11.7052 26.1289 12.8867L40.4092 27.2715C41.1967 28.0654 41.197 29.3528 40.4092 30.1465C39.6212 30.94 38.3427 30.94 37.5547 30.1465L26 18.5059V42C25.9996 43.1042 25.1042 43.9999 24 44C22.8959 43.9998 22.0004 43.1041 22 42V18.5059L10.4443 30.1465C9.6564 30.9396 8.37872 30.9397 7.59082 30.1465C6.80332 29.3527 6.80323 28.0652 7.59082 27.2715L21.8711 12.8867Z" fill="currentColor"/>
<path d="M39 4C40.1044 4 40.9998 4.89563 41 6C40.9998 7.10437 40.1044 8 39 8H9C7.89557 8 7.00023 7.10437 7 6C7.00024 4.89563 7.89558 4 9 4H39Z" fill="currentColor"/>
</svg>
