<svg width="48" height="48" viewBox="0 0 48 48" fill="none" xmlns="http://www.w3.org/2000/svg">
<path d="M13.8085 6.41113C15.6441 5.28201 17.9999 6.61199 17.9999 8.77734V12H28.4999C36.508 12.0001 42.9999 18.4919 42.9999 26.5C42.9999 34.5081 36.508 40.9999 28.4999 41H19.9999C18.8953 41 17.9999 40.1046 17.9999 39C17.9999 37.8954 18.8953 37 19.9999 37H28.4999C34.2988 36.9999 38.9999 32.299 38.9999 26.5C38.9999 20.701 34.2988 16.0001 28.4999 16H17.9999V19.2227C17.9999 21.388 15.6441 22.718 13.8085 21.5889L5.31825 16.3662C3.56058 15.285 3.56058 12.715 5.31825 11.6338L13.8085 6.41113Z" fill="currentColor"/>
</svg>
