<svg width="48" height="48" viewBox="0 0 48 48" fill="none" xmlns="http://www.w3.org/2000/svg">
<path d="M39 39.9993C40.1043 39.9993 40.9996 40.8951 41 41.9993C41 43.1039 40.1046 43.9993 39 43.9993H9C7.89543 43.9993 7 43.1039 7 41.9993C7.00038 40.8951 7.89567 39.9993 9 39.9993H39Z" fill="currentColor"/>
<path d="M21.8711 4.88604C23.0443 3.70423 24.9555 3.70451 26.1289 4.88604L40.4092 19.2708C41.1969 20.0647 41.1971 21.352 40.4092 22.1458C39.6211 22.9396 38.3427 22.9396 37.5547 22.1458L26 10.5052V33.9993C25.9999 35.1037 25.1044 35.9992 24 35.9993C22.8957 35.9991 22.0001 35.1036 22 33.9993V10.5052L10.4443 22.1458C9.65633 22.9393 8.37876 22.9394 7.59082 22.1458C6.80325 21.352 6.80303 20.0645 7.59082 19.2708L21.8711 4.88604Z" fill="currentColor"/>
</svg>
