<svg width="48" height="48" viewBox="0 0 48 48" fill="none" xmlns="http://www.w3.org/2000/svg">
<path d="M38 38.0005C39.6569 38.0005 41 39.3436 41 41.0005C40.9998 42.6571 39.6567 44.0005 38 44.0005H10C8.3433 44.0005 7.00025 42.6571 7 41.0005C7 39.3436 8.34315 38.0005 10 38.0005H38Z" fill="currentColor"/>
<path d="M24 4.00046C25.6567 4.00058 27 5.34368 27 7.00046V24.7583L35.8789 15.8794C37.0505 14.7078 38.9495 14.7078 40.1211 15.8794C41.2923 17.051 41.2926 18.9501 40.1211 20.1216L26.1211 34.1206C24.9495 35.2921 23.0505 35.2921 21.8789 34.1206L7.87891 20.1216C6.70737 18.95 6.70745 17.0509 7.87891 15.8794C9.05048 14.7078 10.9495 14.7078 12.1211 15.8794L21 24.7583V7.00046C21 5.34361 22.3431 4.00046 24 4.00046Z" fill="currentColor"/>
</svg>
