<svg width="48" height="48" viewBox="0 0 48 48" fill="none" xmlns="http://www.w3.org/2000/svg">
<path d="M24 12C25.1046 12 26 12.8954 26 14V29.4287L30.7441 24.5723C31.489 23.8097 32.6965 23.8096 33.4414 24.5723C34.1861 25.3349 34.1862 26.5714 33.4414 27.334L26.1465 34.8027C24.9695 36.0078 23.0305 36.0078 21.8535 34.8027L14.5586 27.334C13.8138 26.5714 13.8139 25.3349 14.5586 24.5723C15.3035 23.8096 16.511 23.8096 17.2559 24.5723L22 29.4287V14C22 12.8954 22.8954 12 24 12Z" fill="currentColor"/>
<path fill-rule="evenodd" clip-rule="evenodd" d="M24 2C36.1503 2 46 11.8497 46 24C46 36.1503 36.1503 46 24 46C11.8497 46 2 36.1503 2 24C2 11.8497 11.8497 2 24 2ZM24 6C14.0589 6 6 14.0589 6 24C6 33.9411 14.0589 42 24 42C33.9411 42 42 33.9411 42 24C42 14.0589 33.9411 6 24 6Z" fill="currentColor"/>
</svg>
