<svg width="48" height="48" viewBox="0 0 48 48" fill="none" xmlns="http://www.w3.org/2000/svg">
<path d="M44.2425 20.8384L28.3368 6.45599C25.7648 4.13082 21.6545 5.95591 21.6545 9.42322V16.2485C21.653 16.2512 21.6488 16.2581 21.64 16.2671C21.6146 16.2928 21.5715 16.3159 21.5184 16.3196C13.75 16.843 8.89808 20.2313 5.97106 24.3484C3.10887 28.3746 2.19283 32.9403 1.89829 35.7823C1.74537 37.2579 2.65349 38.3715 3.73373 38.7999C4.77038 39.211 6.07993 39.0578 7.02481 38.1384C9.57905 35.6529 14.6854 31.778 21.6552 31.6826L21.6545 31.7496V38.1881C21.6545 41.6554 25.7648 43.4805 28.3368 41.1553L44.2425 26.7729C45.9988 25.1848 45.9988 22.4265 44.2425 20.8384ZM25.654 38.1881V31.7496L25.6547 31.5942C25.6547 29.6171 24.1529 27.7855 22.0066 27.6837L21.7967 27.6796L21.0019 27.6968C14.5304 27.9518 9.52271 30.8659 6.33151 33.422C6.81068 31.2937 7.67668 28.8516 9.23107 26.6652C11.4632 23.5255 15.2171 20.7536 21.7864 20.3109C23.8464 20.1721 25.6547 18.4959 25.6547 16.2491L25.654 9.42322L41.5598 23.8057L25.654 38.1881Z" fill="currentColor"/>
</svg>
