<svg width="48" height="48" viewBox="0 0 48 48" fill="none" xmlns="http://www.w3.org/2000/svg">
<path fill-rule="evenodd" clip-rule="evenodd" d="M24 2C36.1503 2 46 11.8497 46 24C46 36.1503 36.1503 46 24 46C11.8497 46 2 36.1503 2 24C2 11.8497 11.8497 2 24 2ZM24 12C22.8954 12 22 12.8954 22 14V29.4287L17.2559 24.5723C16.511 23.8096 15.3035 23.8096 14.5586 24.5723C13.8139 25.3349 13.8138 26.5714 14.5586 27.334L21.8535 34.8027C23.0305 36.0078 24.9695 36.0078 26.1465 34.8027L33.4414 27.334C34.1862 26.5714 34.1861 25.3349 33.4414 24.5723C32.6965 23.8096 31.489 23.8097 30.7441 24.5723L26 29.4287V14C26 12.8954 25.1046 12 24 12Z" fill="currentColor"/>
</svg>
