<svg width="48" height="48" viewBox="0 0 48 48" fill="none" xmlns="http://www.w3.org/2000/svg">
<path fill-rule="evenodd" clip-rule="evenodd" d="M24 2C36.1503 2 46 11.8497 46 24C46 36.1503 36.1503 46 24 46C11.8497 46 2 36.1503 2 24C2 11.8497 11.8497 2 24 2ZM26.1465 12.9033C24.9695 11.6986 23.0305 11.6986 21.8535 12.9033L14.5586 20.3721C13.8138 21.1346 13.8141 22.3711 14.5586 23.1338C15.3035 23.8964 16.511 23.8964 17.2559 23.1338L22 18.2773V33.7061C22 34.8106 22.8954 35.7061 24 35.7061C25.1046 35.706 26 34.8106 26 33.7061V18.2773L30.7441 23.1338C31.489 23.8964 32.6965 23.8964 33.4414 23.1338C34.1859 22.3711 34.1862 21.1346 33.4414 20.3721L26.1465 12.9033Z" fill="currentColor"/>
</svg>
