<svg width="48" height="48" viewBox="0 0 48 48" fill="none" xmlns="http://www.w3.org/2000/svg">
<path d="M21.8789 13.1216C23.0505 11.95 24.9495 11.95 26.1211 13.1216L40.1211 27.1216C41.2924 28.2931 41.2926 30.1922 40.1211 31.3637C38.9496 32.535 37.0504 32.535 35.8789 31.3637L27 22.4848V40.2426C26.9998 41.8993 25.6567 43.2426 24 43.2426C22.3433 43.2426 21.0002 41.8993 21 40.2426V22.4848L12.1211 31.3637C10.9496 32.535 9.05042 32.535 7.87891 31.3637C6.70741 30.1922 6.70757 28.2931 7.87891 27.1216L21.8789 13.1216Z" fill="currentColor"/>
<path d="M38 4.00046C39.6569 4.00046 41 5.3436 41 7.00046C40.9998 8.6571 39.6567 10.0005 38 10.0005H10C8.3433 10.0005 7.00025 8.6571 7 7.00046C7 5.3436 8.34315 4.00046 10 4.00046H38Z" fill="currentColor"/>
</svg>
