<svg width="48" height="48" viewBox="0 0 48 48" fill="none" xmlns="http://www.w3.org/2000/svg">
<path d="M24.5723 14.5586C25.3349 13.8139 26.5714 13.8138 27.334 14.5586L34.8027 21.8535C36.0078 23.0305 36.0078 24.9695 34.8027 26.1465L27.334 33.4414C26.5714 34.1862 25.3349 34.1861 24.5723 33.4414C23.8096 32.6965 23.8097 31.489 24.5723 30.7441L29.4287 26H14C12.8954 26 12 25.1046 12 24C12 22.8954 12.8954 22 14 22H29.4287L24.5723 17.2559C23.8096 16.511 23.8096 15.3035 24.5723 14.5586Z" fill="currentColor"/>
<path fill-rule="evenodd" clip-rule="evenodd" d="M24 2C36.1503 2 46 11.8497 46 24C46 36.1503 36.1503 46 24 46C11.8497 46 2 36.1503 2 24C2 11.8497 11.8497 2 24 2ZM24 6C14.0589 6 6 14.0589 6 24C6 33.9411 14.0589 42 24 42C33.9411 42 42 33.9411 42 24C42 14.0589 33.9411 6 24 6Z" fill="currentColor"/>
</svg>
