<svg width="48" height="48" viewBox="0 0 48 48" fill="none" xmlns="http://www.w3.org/2000/svg">
<path d="M38 38.0004C39.6569 38.0004 41 39.3436 41 41.0004C40.9998 42.6571 39.6567 44.0004 38 44.0004H10C8.3433 44.0004 7.00025 42.6571 7 41.0004C7 39.3436 8.34315 38.0004 10 38.0004H38Z" fill="currentColor"/>
<path d="M21.8789 5.12153C23.0505 3.94996 24.9495 3.94997 26.1211 5.12153L40.1211 19.1215C41.2924 20.2931 41.2926 22.1922 40.1211 23.3637C38.9496 24.535 37.0504 24.535 35.8789 23.3637L27 14.4848V32.2426C26.9998 33.8993 25.6567 35.2426 24 35.2426C22.3433 35.2426 21.0002 33.8993 21 32.2426V14.4848L12.1211 23.3637C10.9496 24.535 9.05042 24.535 7.87891 23.3637C6.70741 22.1922 6.70757 20.2931 7.87891 19.1215L21.8789 5.12153Z" fill="currentColor"/>
</svg>
