<svg width="48" height="48" viewBox="0 0 48 48" fill="none" xmlns="http://www.w3.org/2000/svg">
<path d="M2 24C2 36.1503 11.8497 46 24 46C36.1503 46 46 36.1503 46 24C46 11.8497 36.1503 2 24 2C11.8497 2 2 11.8497 2 24ZM24 42C14.0589 42 6 33.9411 6 24C6 14.0589 14.0589 6 24 6C33.9411 6 42 14.0589 42 24C42 33.9411 33.9411 42 24 42Z" fill="currentColor"/>
<path d="M14.5586 23.1343C13.8139 22.3716 13.8137 21.1351 14.5586 20.3725L21.8535 12.9038C23.0305 11.6987 24.9695 11.6987 26.1465 12.9038L33.4414 20.3725C34.1862 21.1351 34.1861 22.3716 33.4414 23.1343C32.6965 23.8969 31.489 23.8969 30.7441 23.1343L26 18.2778V33.7065C26 34.8111 25.1046 35.7065 24 35.7065C22.8954 35.7065 22 34.8111 22 33.7065L22 18.2778L17.2559 23.1343C16.511 23.8969 15.3035 23.8969 14.5586 23.1343Z" fill="currentColor"/>
</svg>
