<svg width="48" height="48" viewBox="0 0 48 48" fill="none" xmlns="http://www.w3.org/2000/svg">
<path d="M42 23C43.1045 23 44 22.1046 44 21C44 12.1635 36.8365 5.00003 28 5.00001H25V3.08302C25 1.459 23.317 0.461758 22.0059 1.3086L15.9414 5.22559C14.6863 6.03653 14.6863 7.96349 15.9414 8.77442L22.0059 12.6914C23.317 13.5383 25 12.541 25 10.917V9.00001H28C34.6274 9.00003 40 14.3726 40 21C40 22.1046 40.8955 23 42 23Z" fill="currentColor"/>
<path fill-rule="evenodd" clip-rule="evenodd" d="M25 44C29.2801 44 32.7748 40.6389 32.9893 36.4121L33 36V23C33 18.72 29.6389 15.2252 25.4121 15.0107L25 15H12L11.5879 15.0107C7.36114 15.2252 4 18.72 4 23V36C4 40.4183 7.58172 44 12 44H25ZM12 40C9.79086 40 8 38.2091 8 36V23C8 20.7909 9.79086 19 12 19H25C27.2091 19 29 20.7909 29 23V36C29 38.2091 27.2091 40 25 40H12Z" fill="currentColor"/>
</svg>
