<svg width="48" height="48" viewBox="0 0 48 48" fill="none" xmlns="http://www.w3.org/2000/svg">
<path fill-rule="evenodd" clip-rule="evenodd" d="M15.0996 4.97933C19.3843 2.97439 24.2211 2.4745 28.8252 3.56136C33.4291 4.64827 37.5311 7.25829 40.4668 10.9676C43.4025 14.6771 45 19.2692 45 23.9998V25.9002C44.9999 27.9421 44.1889 29.9007 42.7451 31.3446C41.3011 32.7886 39.342 33.5994 37.2998 33.5994C35.2578 33.5994 33.2994 32.7885 31.8555 31.3446C31.4886 30.9777 31.1631 30.5774 30.8808 30.1512C29.0506 32.4928 26.2023 33.9998 23 33.9998C17.4771 33.9998 13 29.5227 13 23.9998C13.0001 18.4771 17.4772 13.9998 23 13.9998C25.5295 13.9998 27.8385 14.9404 29.5996 16.4891V16.4002C29.5997 15.2959 30.4953 14.4005 31.5996 14.4002C32.7041 14.4002 33.5995 15.2957 33.5996 16.4002V25.9002C33.5997 26.8813 33.9898 27.8227 34.6836 28.5164C35.3774 29.2102 36.3186 29.5994 37.2998 29.5994C38.281 29.5994 39.2221 29.2101 39.916 28.5164C40.6098 27.8227 40.9999 26.8814 41 25.9002V23.9998C41 20.1703 39.7066 16.4529 37.3301 13.45C34.9536 10.4473 31.6331 8.33482 27.9062 7.45492C24.1791 6.57508 20.2635 6.97934 16.7949 8.60238C13.3264 10.2254 10.5075 12.9721 8.79491 16.3973C7.08229 19.8225 6.57669 23.7258 7.35936 27.4744C8.14209 31.2231 10.1673 34.5978 13.1074 37.0516C16.0476 39.5054 19.7303 40.8945 23.5586 40.994C27.3868 41.0934 31.1366 39.8971 34.2002 37.5994C35.0838 36.9371 36.3373 37.1164 37 37.9998C37.6627 38.8835 37.4832 40.1369 36.5996 40.7996C32.8151 43.638 28.1831 45.1159 23.4541 44.993C18.7251 44.87 14.1758 43.154 10.5439 40.1229C6.91207 37.0917 4.41022 32.9225 3.44335 28.2918C2.47655 23.6611 3.10122 18.8394 5.21679 14.6082C7.33238 10.3771 10.8149 6.98428 15.0996 4.97933ZM23 17.9998C19.6863 17.9998 17.0001 20.6862 17 23.9998C17 27.3135 19.6863 29.9998 23 29.9998C26.3137 29.9998 29 27.3135 29 23.9998C28.9999 20.6862 26.3136 17.9998 23 17.9998Z" fill="currentColor"/>
</svg>
