<svg width="48" height="48" viewBox="0 0 48 48" fill="none" xmlns="http://www.w3.org/2000/svg">
<path d="M23.9999 2C27.3301 2 29.9647 2.80375 32.0077 4.32617C34.035 5.83698 35.2849 7.91078 36.1191 10.1006C36.9461 12.2716 37.409 14.6781 37.7861 16.9639C38.1746 19.3196 38.4679 21.5048 38.9472 23.542C39.2981 25.0331 40.6811 27.1346 42.2773 29.1035C43.3774 30.4606 43.4185 32.1854 42.8388 33.5068C42.254 34.8397 40.9233 36 39.1015 36H8.93449C7.10623 36 5.77444 34.8316 5.19133 33.4961C4.61357 32.1723 4.65629 30.4431 5.76066 29.085C6.52191 28.1488 7.27521 27.1338 7.88078 26.1416C8.49977 25.1274 8.89649 24.247 9.04777 23.5664C9.53137 21.3902 9.82494 19.1376 10.2138 16.7559C10.5911 14.4447 11.0542 12.0489 11.8847 9.90332C12.7241 7.73473 13.982 5.70526 16.0175 4.2373C18.0616 2.76319 20.6884 2 23.9999 2ZM23.9999 6C21.3115 6 19.5632 6.61185 18.3573 7.48145C17.143 8.35718 16.2757 9.64046 15.6152 11.3467C14.9458 13.076 14.5337 15.118 14.1611 17.4004C13.7999 19.6124 13.4684 22.1098 12.9521 24.4336C12.6628 25.7354 12.0117 27.051 11.2948 28.2256C10.5646 29.422 9.69355 30.5884 8.86418 31.6084C8.8418 31.6359 8.8295 31.6648 8.82512 31.708C8.81988 31.7596 8.82799 31.828 8.85734 31.8955C8.88585 31.9608 8.91962 31.9917 8.93059 32H39.1073C39.1188 31.9909 39.149 31.9604 39.1757 31.8994C39.2043 31.8341 39.2128 31.7683 39.2079 31.7188C39.2038 31.6777 39.1919 31.6503 39.1698 31.623C37.5859 29.6693 35.6353 26.9344 35.0527 24.458C34.532 22.2453 34.2002 19.8052 33.8388 17.6143C33.4659 15.3534 33.0537 13.2908 32.3808 11.5244C31.715 9.77687 30.8397 8.44424 29.6171 7.5332C28.4101 6.63384 26.6696 6 23.9999 6Z" fill="currentColor"/>
<path d="M23.9999 46C27.0688 46 29.6764 44.3073 30.6213 41.9517C31.0325 40.9265 30.1045 40 28.9999 40H18.9999C17.8954 40 16.9674 40.9265 17.3786 41.9517C18.3235 44.3073 20.9311 46 23.9999 46Z" fill="currentColor"/>
</svg>
