<svg width="48" height="48" viewBox="0 0 48 48" fill="none" xmlns="http://www.w3.org/2000/svg">
<path d="M36.0208 11.9792C29.8604 5.81874 20.1487 5.37537 13.4763 10.6478L37.3515 34.523C42.6239 27.8507 42.1812 18.1396 36.0208 11.9792ZM11.9792 36.0208C18.1396 42.1812 27.8507 42.6239 34.523 37.3515L10.6478 13.4763C5.37536 20.1487 5.81874 29.8604 11.9792 36.0208ZM38.8492 9.15076C47.0503 17.3518 47.0503 30.6482 38.8492 38.8492C30.6482 47.0503 17.3518 47.0503 9.15076 38.8492C0.949747 30.6482 0.949747 17.3518 9.15076 9.15076C17.3518 0.949747 30.6482 0.949747 38.8492 9.15076Z" fill="currentColor"/>
</svg>
