<svg width="48" height="48" viewBox="0 0 48 48" fill="none" xmlns="http://www.w3.org/2000/svg">
<path d="M34.7695 12.1421C28.5211 5.89374 18.3905 5.89374 12.1421 12.1421C5.89371 18.3905 5.89371 28.5212 12.1421 34.7696C16.9149 39.5424 23.9568 40.6724 29.8046 38.1476C30.5534 37.8243 31.4238 37.7016 32.2988 37.888L39.4016 39.4016L37.888 32.2988C37.7015 31.4238 37.8243 30.5534 38.1476 29.8046C40.6723 23.9568 39.5424 16.915 34.7695 12.1421ZM37.5979 9.31371C43.569 15.2848 44.9724 24.0882 41.8199 31.3901C41.7936 31.4509 41.8024 31.4775 41.7998 31.4653L43.3135 38.5682C43.917 41.4017 41.4017 43.917 38.5681 43.3135L31.4653 41.7999C31.4775 41.8025 31.4509 41.7936 31.39 41.8199C24.0882 44.9724 15.2847 43.569 9.31367 37.598C1.50319 29.7875 1.50319 17.1242 9.31367 9.31371C17.1242 1.50322 29.7875 1.50322 37.5979 9.31371Z" fill="currentColor"/>
</svg>
