<svg width="48" height="48" viewBox="0 0 48 48" fill="none" xmlns="http://www.w3.org/2000/svg">
<path d="M29.9999 24C29.9999 27.3137 27.3136 30 23.9999 30C20.6862 30 17.9999 27.3137 17.9999 24C17.9999 20.6863 20.6862 18 23.9999 18C27.3136 18 29.9999 20.6863 29.9999 24Z" fill="currentColor"/>
<path fill-rule="evenodd" clip-rule="evenodd" d="M9.98869 8.52668C6.08999 9.11148 2.96924 12.0648 2.17051 15.9253C1.06738 21.2571 1.01608 26.753 2.01947 32.1045L2.15301 32.8166C2.95877 37.114 6.4052 40.4252 10.7314 41.0583L12.6008 41.3318C20.16 42.4381 27.8398 42.4381 35.3989 41.3318L37.2684 41.0583C41.5946 40.4252 45.041 37.114 45.8468 32.8166L45.9803 32.1045C46.9837 26.753 46.9324 21.2571 45.8293 15.9253C45.0305 12.0648 41.9098 9.11148 38.0111 8.52668L35.8298 8.19949C34.9594 8.06892 34.1403 7.70579 33.4591 7.14843L32.4389 6.3137C31.4985 5.5443 31.0283 5.15957 30.525 4.84799C29.4419 4.17739 28.2288 3.74435 26.9659 3.57752C26.3791 3.5 25.7716 3.5 24.5565 3.5H23.4432C22.2282 3.5 21.6207 3.5 21.0339 3.57752C19.771 3.74435 18.5578 4.17739 17.4748 4.84799C16.9715 5.15957 16.5013 5.54428 15.5609 6.31369L14.5407 7.14843C13.8595 7.70579 13.0404 8.06892 12.17 8.19949L9.98869 8.52668ZM33.9999 24C33.9999 29.5228 29.5227 34 23.9999 34C18.477 34 13.9999 29.5228 13.9999 24C13.9999 18.4772 18.477 14 23.9999 14C29.5227 14 33.9999 18.4772 33.9999 24Z" fill="currentColor"/>
</svg>
