<svg width="48" height="48" viewBox="0 0 48 48" fill="none" xmlns="http://www.w3.org/2000/svg">
<path fill-rule="evenodd" clip-rule="evenodd" d="M33.9999 24C33.9999 29.5228 29.5227 34 23.9999 34C18.477 34 13.9999 29.5228 13.9999 24C13.9999 18.4772 18.477 14 23.9999 14C29.5227 14 33.9999 18.4772 33.9999 24ZM29.9999 24C29.9999 27.3137 27.3136 30 23.9999 30C20.6862 30 17.9999 27.3137 17.9999 24C17.9999 20.6863 20.6862 18 23.9999 18C27.3136 18 29.9999 20.6863 29.9999 24Z" fill="currentColor"/>
<path fill-rule="evenodd" clip-rule="evenodd" d="M2.17051 15.9253C2.96924 12.0648 6.08999 9.11148 9.98869 8.52668L12.17 8.19949C13.0404 8.06892 13.8595 7.70579 14.5407 7.14843L15.5609 6.3137C16.5013 5.54428 16.9715 5.15957 17.4748 4.84799C18.5578 4.17739 19.771 3.74435 21.0339 3.57752C21.6207 3.5 22.2282 3.5 23.4432 3.5H24.5565C25.7716 3.5 26.3791 3.5 26.9659 3.57752C28.2288 3.74435 29.4419 4.17739 30.525 4.84799C31.0282 5.15957 31.4984 5.54427 32.4388 6.31366L33.4591 7.14843C34.1403 7.70579 34.9594 8.06892 35.8298 8.19949L38.0111 8.52668C41.9098 9.11148 45.0305 12.0648 45.8293 15.9253C46.9324 21.2571 46.9837 26.753 45.9803 32.1045L45.8468 32.8166C45.041 37.114 41.5946 40.4252 37.2684 41.0583L35.3989 41.3318C27.8398 42.4381 20.16 42.4381 12.6008 41.3318L10.7314 41.0583C6.4052 40.4252 2.95877 37.114 2.15301 32.8166L2.01947 32.1045C1.01608 26.753 1.06738 21.2571 2.17051 15.9253ZM36.6892 37.1004L34.8197 37.374C27.6447 38.424 20.3551 38.424 13.18 37.374L11.3106 37.1004C8.675 36.7147 6.57538 34.6975 6.08449 32.0795L5.95096 31.3673C5.04354 26.5277 5.08994 21.5575 6.08755 16.7357C6.54673 14.5164 8.34078 12.8186 10.582 12.4824L12.7633 12.1552C14.3459 11.9178 15.8351 11.2576 17.0736 10.2443L18.0939 9.40953C19.1143 8.57463 19.3526 8.38997 19.5804 8.24888C20.1822 7.87633 20.8561 7.63575 21.5577 7.54307C21.8234 7.50796 22.1248 7.5 23.4432 7.5H24.5565C25.875 7.5 26.1763 7.50796 26.442 7.54307C27.1437 7.63575 27.8176 7.87633 28.4193 8.24888C28.6472 8.38997 28.8855 8.57463 29.9059 9.40953L30.9261 10.2443C32.1647 11.2576 33.6538 11.9178 35.2364 12.1552L37.4177 12.4824C39.659 12.8186 41.453 14.5164 41.9122 16.7357C42.9098 21.5575 42.9562 26.5277 42.0488 31.3673L41.9153 32.0795C41.4244 34.6975 39.3248 36.7147 36.6892 37.1004Z" fill="currentColor"/>
</svg>
