<svg width="48" height="48" viewBox="0 0 48 48" fill="none" xmlns="http://www.w3.org/2000/svg">
<path d="M24.0046 15.0049C25.1092 15.0049 26.0046 15.9004 26.0046 17.0049V22H30.9997C32.1043 22 32.9997 22.8954 32.9997 24C32.9997 25.1046 32.1043 26 30.9997 26H26.0046V31.0049C26.0046 32.1095 25.1092 33.0049 24.0046 33.0049C22.9002 33.0048 22.0046 32.1094 22.0046 31.0049V26H16.9997C15.8953 25.9999 14.9997 25.1045 14.9997 24C14.9997 22.8955 15.8953 22.0001 16.9997 22H22.0046V17.0049C22.0047 15.9004 22.9002 15.005 24.0046 15.0049Z" fill="currentColor"/>
<path fill-rule="evenodd" clip-rule="evenodd" d="M24.5564 3.5C25.7712 3.5 26.3789 3.49968 26.9656 3.57715C28.2285 3.74398 29.4421 4.17707 30.5251 4.84766C31.0284 5.15924 31.4988 5.54409 32.4392 6.31348L33.4587 7.14844C34.14 7.7058 34.9594 8.06865 35.8298 8.19922L38.0115 8.52637C41.91 9.11129 45.0301 12.0653 45.8288 15.9258C46.9319 21.2575 46.9836 26.7532 45.9802 32.1045L45.8464 32.8164C45.0407 37.1138 41.5945 40.4255 37.2683 41.0586L35.3992 41.332C27.8402 42.4382 20.1603 42.4382 12.6013 41.332L10.7312 41.0586C6.40505 40.4254 2.95882 37.1138 2.15307 32.8164L2.01928 32.1045C1.01591 26.7532 1.0676 21.2574 2.17065 15.9258C2.96938 12.0652 6.09031 9.11117 9.98901 8.52637L12.1697 8.19922C13.0401 8.06865 13.8595 7.7058 14.5408 7.14844L15.5613 6.31348C16.5014 5.5443 16.9712 5.15919 17.4744 4.84766C18.5574 4.17705 19.771 3.74398 21.0339 3.57715C21.6207 3.49965 22.2282 3.5 23.4431 3.5H24.5564ZM23.4431 7.5C22.1248 7.5 21.8231 7.50787 21.5574 7.54297C20.8559 7.63568 20.1824 7.8766 19.5808 8.24902C19.3529 8.39011 19.1139 8.57428 18.0935 9.40918L17.074 10.2441C15.8354 11.2575 14.346 11.9179 12.7634 12.1553L10.5818 12.4824C8.34075 12.8187 6.54692 14.5163 6.08764 16.7354C5.09004 21.5571 5.04352 26.5277 5.95092 31.3672L6.08471 32.0791C6.57558 34.6971 8.67482 36.7148 11.3103 37.1006L13.1804 37.374C20.3553 38.424 27.6452 38.424 34.8201 37.374L36.6892 37.1006C39.3248 36.7149 41.4239 34.6971 41.9148 32.0791L42.0486 31.3672C42.956 26.5276 42.9095 21.5571 41.9119 16.7354C41.4525 14.5162 39.6588 12.8186 37.4177 12.4824L35.2361 12.1553C33.6537 11.9179 32.1649 11.2574 30.9265 10.2441L29.906 9.40918C28.8861 8.57475 28.6474 8.39008 28.4197 8.24902C27.818 7.87648 27.1437 7.63566 26.4421 7.54297C26.1764 7.50787 25.8749 7.5 24.5564 7.5H23.4431Z" fill="currentColor"/>
</svg>
