<svg width="48" height="48" viewBox="0 0 48 48" fill="none" xmlns="http://www.w3.org/2000/svg">
<path fill-rule="evenodd" clip-rule="evenodd" d="M36.1375 19.2301C36.501 18.0626 36.6965 16.8232 36.6965 15.5405C36.6965 8.61458 31.0125 3 24.001 3C16.9894 3 11.3054 8.61458 11.3054 15.5405C11.3054 16.8247 11.5008 18.0637 11.8639 19.2303C10.6586 19.5032 9.47435 19.9556 8.34988 20.5969C2.27771 24.0599 0.197227 31.7295 3.703 37.7276C7.20876 43.7256 14.9732 45.7807 21.0454 42.3177C22.1709 41.6758 23.1593 40.8894 24.0003 39.9959C24.842 40.8902 25.8305 41.6767 26.9546 42.3178C33.0268 45.7808 40.7912 43.7257 44.297 37.7276C47.8028 31.7296 45.7223 24.0599 39.6501 20.597C38.5248 19.9552 37.3413 19.5029 36.1375 19.2301ZM24.001 6.85862C19.1468 6.85862 15.2118 10.7456 15.2118 15.5405C15.2118 19.9922 18.6036 23.6613 22.9738 24.1638C25.1608 21.1344 28.5218 19.3181 32.0764 18.9745C32.5355 17.9228 32.7902 16.7628 32.7902 15.5405C32.7902 10.7456 28.8551 6.85862 24.001 6.85862ZM26.2548 36.6497C26.9472 37.5678 27.8366 38.3653 28.9078 38.9761C33.1116 41.3736 38.487 39.9508 40.914 35.7983C43.3411 31.6458 41.9008 26.3361 37.697 23.9386C33.7941 21.7128 28.8814 22.7798 26.2557 26.267C27.8189 29.6528 27.731 33.4367 26.2548 36.6497ZM13.6708 22.8321C15.7495 25.7004 19.022 27.6669 22.7708 28.0229C24.5164 32.0129 22.9956 36.75 19.0922 38.9761C14.8884 41.3735 9.51303 39.9508 7.08596 35.7983C4.65889 31.6458 6.09922 26.336 10.303 23.9386C11.3747 23.3274 12.5191 22.9652 13.6708 22.8321Z" fill="currentColor"/>
</svg>
