<svg width="48" height="48" viewBox="0 0 48 48" fill="none" xmlns="http://www.w3.org/2000/svg">
<path fill-rule="evenodd" clip-rule="evenodd" d="M32.2002 5C36.6804 5 38.9206 5.0002 40.6318 5.87207C42.1371 6.63903 43.3609 7.86295 44.1279 9.36816C44.9999 11.0794 45 13.3197 45 17.7998V30.2002C45 34.6804 44.9998 36.9206 44.1279 38.6318C43.361 40.1371 42.1371 41.3609 40.6318 42.1279C38.9206 42.9999 36.6805 43 32.2002 43H15.7998C11.3195 43 9.07943 42.9999 7.36816 42.1279C5.8629 41.3609 4.63904 40.1371 3.87207 38.6318C3.00023 36.9206 3 34.6804 3 30.2002V17.7998C3 13.3197 3.00015 11.0794 3.87207 9.36816C4.63906 7.86295 5.86293 6.63903 7.36816 5.87207C9.07942 5.0002 11.3196 5 15.7998 5H32.2002ZM18.8125 23.2041C17.1959 21.5722 14.5661 21.6034 12.9883 23.2734L9.76172 26.6885C8.69421 27.8186 8.09172 29.3164 8.0752 30.8779L8.03223 34.8848C8.01416 36.5999 9.3869 38 11.0859 38H31.0127C31.9191 37.9997 32.3732 36.8933 31.7324 36.2461L18.8125 23.2041ZM33.9951 10.7119C33.671 9.76278 32.329 9.76278 32.0049 10.7119L30.8242 14.1689C30.719 14.477 30.477 14.719 30.1689 14.8242L26.7119 16.0049C25.7628 16.329 25.7628 17.671 26.7119 17.9951L30.1689 19.1758C30.477 19.281 30.719 19.523 30.8242 19.8311L32.0049 23.2881C32.329 24.2372 33.671 24.2372 33.9951 23.2881L35.1758 19.8311C35.281 19.523 35.523 19.281 35.8311 19.1758L39.2881 17.9951C40.2372 17.671 40.2372 16.329 39.2881 16.0049L35.8311 14.8242C35.523 14.719 35.281 14.477 35.1758 14.1689L33.9951 10.7119Z" fill="currentColor"/>
</svg>
