<svg width="48" height="48" viewBox="0 0 48 48" fill="none" xmlns="http://www.w3.org/2000/svg">
<path d="M36.2444 15.1302C36.2444 15.4669 36.2306 15.8004 36.2034 16.1301C35.2521 15.9515 34.2704 15.858 33.2666 15.858C26.5212 15.858 20.7712 20.0795 18.5615 26.0011C14.5279 24.0168 11.7557 19.8942 11.7557 15.1302C11.7557 8.43087 17.2377 3 24.0001 3C30.7624 3 36.2444 8.43087 36.2444 15.1302Z" fill="currentColor"/>
<path d="M46 31.8698C46 38.5691 40.518 44 33.7556 44C26.9932 44 21.5112 38.5691 21.5112 31.8698C21.5112 25.1705 26.9932 19.7396 33.7556 19.7396C40.518 19.7396 46 25.1705 46 31.8698Z" fill="currentColor"/>
<path d="M8.93319 20.937C4.83074 22.8966 2 27.0557 2 31.8697C2 38.569 7.48199 43.9999 14.2444 43.9999C16.9603 43.9999 19.4696 43.1239 21.5003 41.6416C19.0687 38.9061 17.5938 35.316 17.5938 31.3845C17.5938 30.8723 17.6188 30.3658 17.6677 29.8663C13.6776 28.1814 10.5112 24.9525 8.93319 20.937Z" fill="currentColor"/>
</svg>
