<svg preserveAspectRatio="none" width="100%" height="100%" overflow="visible" style="display: block;" viewBox="0 0 13.6006 10.0001" fill="none" xmlns="http://www.w3.org/2000/svg">
<g id="Connection">
<path id="Wifi" d="M4.83301 7.66119C5.9689 6.67731 7.63267 6.67731 8.76856 7.66119C8.82555 7.71408 8.85876 7.78849 8.86036 7.86725C8.86193 7.94613 8.83136 8.02194 8.77637 8.07721L6.99805 9.91607C6.94593 9.96994 6.87484 10.0001 6.80079 10.0001C6.72673 10 6.65563 9.96995 6.60352 9.91607L4.82422 8.07721C4.76947 8.02192 4.73959 7.94598 4.74121 7.86725C4.74285 7.78848 4.77598 7.71405 4.83301 7.66119ZM2.45996 5.20807C4.90724 2.87714 8.69739 2.87691 11.1445 5.20807C11.1998 5.26273 11.2307 5.3384 11.2314 5.41705C11.2322 5.49559 11.2025 5.57126 11.1484 5.62701L10.1201 6.69049C10.0142 6.79905 9.84309 6.80188 9.73438 6.69635C8.93073 5.9511 7.88496 5.53808 6.80079 5.53814C5.71734 5.53861 4.67225 5.9516 3.86914 6.69635C3.76043 6.80178 3.58925 6.79902 3.4834 6.69049L2.45606 5.62701C2.40183 5.57132 2.37138 5.4957 2.37207 5.41705C2.3728 5.33836 2.40468 5.26273 2.45996 5.20807ZM0.0859413 2.76275C3.83939 -0.920997 9.76111 -0.920839 13.5147 2.76275C13.569 2.81748 13.6001 2.89272 13.6006 2.97076C13.6009 3.04859 13.5711 3.12349 13.5176 3.17877L12.4883 4.24322C12.3822 4.3524 12.2093 4.35365 12.1016 4.24615C10.6715 2.85382 8.77401 2.07729 6.80079 2.07721C4.82736 2.07721 2.92929 2.85372 1.49903 4.24615C1.39147 4.35353 1.21923 4.35225 1.11329 4.24322L0.0839882 3.17877C0.0304132 3.12345 -0.00039485 3.04866 3.82206e-06 2.97076C0.000505198 2.89272 0.0315688 2.81744 0.0859413 2.76275Z" fill="currentColor"/>
</g>
</svg>
