<svg width="48" height="48" viewBox="0 0 48 48" fill="none" xmlns="http://www.w3.org/2000/svg">
<path fill-rule="evenodd" clip-rule="evenodd" d="M33.4736 2.97725C34.1835 2.13121 35.4449 2.02047 36.291 2.73018C37.1371 3.44009 37.2478 4.70141 36.5381 5.54756L26.5947 17.3952L33.7803 25.9587C33.7924 25.9732 33.8028 25.9889 33.8145 26.0036C33.8762 26.0024 33.938 25.9997 34 25.9997C38.9705 25.9997 42.9999 30.0292 43 34.9997C43 39.9703 38.9706 43.9997 34 43.9997C29.0294 43.9997 25 39.9703 25 34.9997C25.0001 31.6396 26.8426 28.7116 29.5713 27.1657L23.9844 20.5075L18.4072 27.153C21.1479 28.6956 22.9999 31.6307 23 34.9997C23 39.9703 18.9706 43.9997 14 43.9997C9.02944 43.9997 5 39.9703 5 34.9997C5.0001 30.0292 9.0295 25.9997 14 25.9997C14.0519 25.9997 14.1036 26.0027 14.1553 26.0036C14.1671 25.9887 14.1781 25.9724 14.1904 25.9577L21.374 17.3962L11.4326 5.54854C10.7226 4.70241 10.8326 3.44019 11.6787 2.73018C12.5249 2.02017 13.7871 2.1311 14.4971 2.97725L23.9844 14.2849L33.4736 2.97725ZM14 29.9997C11.2386 29.9997 9.0001 32.2384 9 34.9997C9 37.7611 11.2386 39.9997 14 39.9997C16.7614 39.9997 19 37.7611 19 34.9997C18.9999 32.2384 16.7614 29.9997 14 29.9997ZM34 29.9997C31.2386 29.9997 29.0001 32.2384 29 34.9997C29 37.7611 31.2386 39.9997 34 39.9997C36.7614 39.9997 39 37.7611 39 34.9997C38.9999 32.2384 36.7614 29.9997 34 29.9997Z" fill="currentColor"/>
</svg>
