<svg width="48" height="48" viewBox="0 0 48 48" fill="none" xmlns="http://www.w3.org/2000/svg">
<path fill-rule="evenodd" clip-rule="evenodd" d="M12 2C13.1046 2 14 2.89543 14 4V10H28C33.5228 10 38 14.4772 38 20V34H44C45.1046 34 46 34.8954 46 36C46 37.1046 45.1046 38 44 38H38V44C38 45.1046 37.1046 46 36 46C34.8954 46 34 45.1046 34 44V38H20C14.4772 38 10 33.5228 10 28V14H4C2.89543 14 2 13.1046 2 12C2 10.8954 2.89543 10 4 10H10V4C10 2.89543 10.8954 2 12 2ZM14 28C14 31.3137 16.6863 34 20 34H34V20C34 16.6863 31.3137 14 28 14H14V28Z" fill="currentColor"/>
</svg>
