<svg width="48" height="48" viewBox="0 0 48 48" fill="none" xmlns="http://www.w3.org/2000/svg">
<path fill-rule="evenodd" clip-rule="evenodd" d="M28 3C29.5913 3 31.117 3.63259 32.2422 4.75781C33.3674 5.88303 34 7.4087 34 9V11H42C43.1046 11 44 11.8954 44 13C44 14.1046 43.1046 15 42 15H39V35.75C39 40.3064 35.4183 44 31 44H17C12.5817 44 9 40.3064 9 35.75V15H6C4.89543 15 4 14.1046 4 13C4 11.8954 4.89543 11 6 11H14V9C14 7.4087 14.6326 5.88303 15.7578 4.75781C16.883 3.63259 18.4087 3 20 3H28ZM13 35.75C13 38.0282 14.7909 39.875 17 39.875H31C33.2091 39.875 35 38.0282 35 35.75V15.125H13V35.75ZM20 7C19.4696 7 18.961 7.21086 18.5859 7.58594C18.2109 7.96101 18 8.46957 18 9V11H30V9C30 8.46957 29.7891 7.96101 29.4141 7.58594C29.039 7.21086 28.5304 7 28 7H20Z" fill="currentColor"/>
</svg>
