<svg width="48" height="48" viewBox="0 0 48 48" fill="none" xmlns="http://www.w3.org/2000/svg">
<path fill-rule="evenodd" clip-rule="evenodd" d="M35.4557 13C40.1473 13.0002 43.8319 17.0194 43.4254 21.6934L42.4684 34.6934C42.1087 38.8272 38.6482 42 34.4987 42H13.5006C9.35128 41.9998 5.89054 38.8271 5.53091 34.6934L4.57388 21.6934C4.16748 17.0195 7.85227 13.0005 12.5436 13H35.4557ZM12.5436 17C10.1981 17.0005 8.35606 19.0099 8.55923 21.3467L9.51529 34.3467C9.69508 36.4135 11.426 37.9998 13.5006 38H34.4987C36.5735 38 38.3042 36.4136 38.484 34.3467L39.4401 21.3467C39.6433 19.0098 37.8014 17.0002 35.4557 17H12.5436Z" fill="currentColor"/>
<path d="M33.9997 6C35.1042 6 35.9997 6.89543 35.9997 8C35.9997 9.10457 35.1042 10 33.9997 10H13.9997C12.8953 9.99978 11.9997 9.10444 11.9997 8C11.9997 6.89556 12.8953 6.00022 13.9997 6H33.9997Z" fill="currentColor"/>
</svg>
