<svg width="48" height="48" viewBox="0 0 48 48" fill="none" xmlns="http://www.w3.org/2000/svg">
<path d="M8.3671 6.29081C11.1227 3.99551 14.8637 3.89214 18.2238 4.56611C21.649 5.25314 25.1558 6.83254 27.9648 8.55898C28.9058 9.13737 29.1994 10.369 28.6211 11.31C28.0426 12.251 26.811 12.5446 25.87 11.9663C23.3473 10.4158 20.2823 9.05856 17.4371 8.48786C14.5267 7.90412 12.2985 8.22217 10.9273 9.3644C7.86046 11.9191 6.90792 15.3724 7.52831 19.2265C8.1618 23.1613 10.4481 27.4391 13.7864 31.1393C17.1166 34.8305 21.3547 37.7901 25.684 39.2088C29.9885 40.6194 34.2644 40.4812 37.9543 38.212C38.8952 37.6334 40.1277 37.9273 40.7063 38.8682C41.2847 39.809 40.991 41.0407 40.0502 41.6192C35.1251 44.6482 29.5706 44.6922 24.4384 43.0104C19.331 41.3367 14.5252 37.9295 10.8165 33.8188C7.11588 29.7169 4.36689 24.7575 3.57883 19.862C2.77781 14.8856 4.01809 9.91364 8.3671 6.29081ZM36.7308 21.1921C37.7236 20.7081 38.9206 21.1206 39.4048 22.1133C40.4507 24.2585 40.8896 26.77 40.5856 29.0864C40.2812 31.4051 39.192 33.7291 36.9761 35.1023C33.1412 37.4786 28.1362 37.6375 23.3083 34.2937C22.4003 33.6648 22.174 32.4186 22.8029 31.5106C23.4318 30.6025 24.678 30.3762 25.5861 31.0051C29.1529 33.4754 32.4364 33.2095 34.8689 31.7022C35.7867 31.1334 36.4236 30.0618 36.62 28.5659C36.8166 27.0679 36.5302 25.344 35.8097 23.8661C35.3258 22.8733 35.7381 21.6762 36.7308 21.1921Z" fill="currentColor"/>
<path d="M37.872 16.1162L28.4404 25.5479C28.3155 25.6727 28.1766 25.7837 28.0273 25.8779L23.4736 28.751C21.3308 30.1026 18.8418 27.6135 20.1933 25.4707L23.0654 20.916C23.1596 20.7667 23.2706 20.6278 23.3954 20.5029L32.8271 11.0713L37.872 16.1162Z" fill="currentColor"/>
<path d="M37.3759 6.52246C38.7691 5.12952 41.0276 5.12952 42.4208 6.52246C43.814 7.91563 43.8138 10.1741 42.4208 11.5674L40.7011 13.2881L35.6562 8.24219L37.3759 6.52246Z" fill="currentColor"/>
</svg>
