<svg preserveAspectRatio="none" width="100%" height="100%" overflow="visible" style="display: block;" viewBox="0 0 19.166 19.166" fill="none" xmlns="http://www.w3.org/2000/svg">
<path id="Tint" d="M14.375 9.58301C15.028 9.58379 14.8842 11.9272 15.8555 12.8984C16.8269 13.8654 19.166 13.7216 19.166 14.375C19.1652 15.028 16.8267 14.8842 15.8555 15.8555C14.8842 16.8267 15.028 19.1652 14.375 19.166C13.7216 19.166 13.8697 16.8269 12.8984 15.8555C11.9272 14.8842 9.58379 15.028 9.58301 14.375C9.58301 13.7216 11.927 13.8655 12.8984 12.8984C13.8655 11.927 13.7216 9.58301 14.375 9.58301ZM6.875 0C7.81213 0.000777466 7.60641 3.36227 9 4.75586C10.3938 6.14322 13.75 5.93753 13.75 6.875C13.7492 7.81213 10.3936 7.60641 9 9C7.60641 10.3936 7.81213 13.7492 6.875 13.75C5.93753 13.75 6.14947 10.3938 4.75586 9C3.36227 7.60641 0.000777466 7.81213 0 6.875C0 5.9375 3.36211 6.14336 4.75586 4.75586C6.14336 3.36211 5.9375 0 6.875 0Z" fill="currentColor"/>
</svg>
