<svg width="48" height="48" viewBox="0 0 48 48" fill="none" xmlns="http://www.w3.org/2000/svg">
<path d="M15.4859 3.43398C15.979 1.99006 18.0211 1.99007 18.5142 3.43398L21.3283 11.6747C21.4883 12.1435 21.8566 12.5117 22.3253 12.6718L30.566 15.4858C32.01 15.9789 32.01 18.0211 30.566 18.5141L22.3253 21.3282C21.8566 21.4883 21.4883 21.8565 21.3283 22.3253L18.5142 30.566C18.0211 32.0099 15.979 32.0099 15.4859 30.566L12.6718 22.3253C12.5117 21.8565 12.1435 21.4883 11.6747 21.3282L3.43401 18.5141C1.99009 18.0211 1.9901 15.9789 3.43401 15.4858L11.6747 12.6718C12.1435 12.5117 12.5117 12.1435 12.6718 11.6747L15.4859 3.43398Z" fill="currentColor"/>
<path d="M33.4859 25.434C33.979 23.9901 36.0211 23.9901 36.5142 25.434L38.31 30.6929C38.4701 31.1617 38.8383 31.5299 39.3071 31.69L44.566 33.4858C46.0099 33.9789 46.01 36.0211 44.566 36.5141L39.3071 38.31C38.8383 38.4701 38.4701 38.8383 38.31 39.3071L36.5142 44.566C36.0211 46.0099 33.979 46.0099 33.4859 44.566L31.69 39.3071C31.5299 38.8383 31.1617 38.4701 30.6929 38.31L25.434 36.5141C23.9901 36.0211 23.9901 33.9789 25.434 33.4858L30.6929 31.69C31.1617 31.5299 31.5299 31.1617 31.69 30.6929L33.4859 25.434Z" fill="currentColor"/>
</svg>
