<svg width="48" height="48" viewBox="0 0 48 48" fill="none" xmlns="http://www.w3.org/2000/svg">
<path d="M42 22.3086L27.7188 29.8066C25.3903 31.0291 22.6097 31.0291 20.2812 29.8066L6 22.3086V33C6 35.2091 7.79086 37 10 37H38C40.2091 37 42 35.2091 42 33V22.3086ZM42 15C42 12.7909 40.2091 11 38 11H10C7.79086 11 6 12.7909 6 15V17.791L22.1406 26.2646C23.3048 26.8759 24.6952 26.8759 25.8594 26.2646L42 17.791V15ZM46 33C46 37.4183 42.4183 41 38 41H10C5.58172 41 2 37.4183 2 33V15C2 10.5817 5.58172 7 10 7H38C42.4183 7 46 10.5817 46 15V33Z" fill="currentColor"/>
</svg>
