<svg width="48" height="48" viewBox="0 0 48 48" fill="none" xmlns="http://www.w3.org/2000/svg">
<path d="M41 24C41 22.1779 39.4693 19.4476 36.2402 17.041C33.1153 14.7121 28.7779 13 24 13C19.2221 13 14.8847 14.7121 11.7598 17.041C8.53073 19.4476 7 22.1779 7 24C7 25.8221 8.53073 28.5524 11.7598 30.959C14.8847 33.2879 19.2221 35 24 35C28.7779 35 33.1153 33.2879 36.2402 30.959C39.4693 28.5524 41 25.8221 41 24ZM45 24C45 27.6779 42.2774 31.4476 38.6299 34.166C34.8782 36.962 29.7155 39 24 39C18.2845 39 13.1218 36.962 9.37012 34.166C5.72262 31.4476 3 27.6779 3 24C3 20.3221 5.72262 16.5524 9.37012 13.834C13.1218 11.038 18.2845 9 24 9C29.7155 9 34.8782 11.038 38.6299 13.834C42.2774 16.5524 45 20.3221 45 24Z" fill="currentColor"/>
<path d="M28 24C28 21.7909 26.2091 20 24 20C21.7909 20 20 21.7909 20 24C20 26.2091 21.7909 28 24 28C26.2091 28 28 26.2091 28 24ZM32 24C32 28.4183 28.4183 32 24 32C19.5817 32 16 28.4183 16 24C16 19.5817 19.5817 16 24 16C28.4183 16 32 19.5817 32 24Z" fill="currentColor"/>
</svg>
