<svg width="48" height="48" viewBox="0 0 48 48" fill="none" xmlns="http://www.w3.org/2000/svg">
<path d="M7.58594 6.58594C8.36699 5.80489 9.63301 5.80489 10.4141 6.58594L41.4141 37.5859C42.1951 38.367 42.1951 39.633 41.4141 40.4141C40.633 41.1951 39.367 41.1951 38.5859 40.4141L34.7061 36.5342C31.5875 38.0368 27.9261 39 24 39C18.2845 39 13.1218 36.962 9.37012 34.166C5.72262 31.4476 3 27.6779 3 24C3 21.5723 4.1956 19.1321 5.93945 17.0449C7.25144 15.4746 8.95303 14.0058 10.9365 12.7646L7.58594 9.41406C6.80489 8.63302 6.80489 7.36699 7.58594 6.58594ZM41 24C41 22.1779 39.4693 19.4476 36.2402 17.041C33.1153 14.7121 28.7779 13 24 13C23.0721 13 22.1605 13.0643 21.2705 13.1855C20.1762 13.3347 19.1679 12.5689 19.0186 11.4746C18.8694 10.3803 19.6353 9.37203 20.7295 9.22266C21.7938 9.07758 22.8864 9 24 9C29.7155 9 34.8782 11.038 38.6299 13.834C42.2774 16.5524 45 20.3221 45 24C45 26.7753 43.4412 29.5782 41.2275 31.8848C40.4628 32.6816 39.1963 32.708 38.3994 31.9434C37.6026 31.1786 37.5763 29.9122 38.3408 29.1152C40.1888 27.1898 41 25.33 41 24ZM7 24C7 25.8221 8.53073 28.5524 11.7598 30.959C14.8847 33.2879 19.2221 35 24 35C26.7505 35 29.3563 34.4302 31.6729 33.501L28.667 30.4961C27.354 31.4407 25.7424 32 24 32C19.5817 32 16 28.4183 16 24C16 22.2576 16.5583 20.645 17.5029 19.332L13.8535 15.6826C11.8451 16.8146 10.1908 18.1946 9.00879 19.6094C7.60335 21.2915 7 22.8509 7 24ZM20 24C20 26.2091 21.7909 28 24 28C24.6326 28 25.2307 27.8534 25.7627 27.5918L20.4072 22.2363C20.1455 22.7685 20 23.3672 20 24Z" fill="currentColor"/>
</svg>
