<svg width="48" height="48" viewBox="0 0 48 48" fill="none" xmlns="http://www.w3.org/2000/svg">
<path d="M28.7998 30.5V12.4004C28.7998 12.0291 28.6522 11.6727 28.3896 11.4102C28.1272 11.1478 27.7715 11.0001 27.4004 11C27.0291 11 26.6727 11.1476 26.4102 11.4102C26.1476 11.6727 26 12.0291 26 12.4004V35.5996C26 37.0318 25.4307 38.4053 24.418 39.418C23.4053 40.4307 22.0318 41 20.5996 41C19.1676 40.9999 17.7939 40.4306 16.7812 39.418C15.7688 38.4053 15.2002 37.0316 15.2002 35.5996V17.5C15.2002 17.1287 15.0526 16.7723 14.79 16.5098C14.5275 16.2473 14.1711 16.0996 13.7998 16.0996C13.4286 16.0997 13.0721 16.2473 12.8096 16.5098C12.5471 16.7723 12.4004 17.1287 12.4004 17.5V22.2998C12.4004 23.7319 11.831 25.1055 10.8184 26.1182C9.80566 27.1309 8.43217 27.7002 7 27.7002C5.8955 27.7002 5.00011 26.8047 5 25.7002C5 24.5956 5.89543 23.7002 7 23.7002C7.3713 23.7002 7.72768 23.5526 7.99023 23.29C8.25272 23.0275 8.40039 22.6711 8.40039 22.2998V17.5C8.40039 16.0679 8.96881 14.6943 9.98145 13.6816C10.9941 12.669 12.3677 12.0997 13.7998 12.0996C15.2319 12.0996 16.6055 12.669 17.6182 13.6816C18.6309 14.6943 19.2002 16.0678 19.2002 17.5V35.5996C19.2002 35.9709 19.3478 36.3273 19.6104 36.5898C19.8728 36.8522 20.2285 36.9999 20.5996 37C20.9709 37 21.3273 36.8524 21.5898 36.5898C21.8524 36.3273 22 35.9709 22 35.5996V12.4004C22 10.9682 22.5693 9.59473 23.582 8.58203C24.5947 7.56933 25.9682 7 27.4004 7C28.8324 7.0001 30.2061 7.56943 31.2188 8.58203C32.2312 9.59469 32.7998 10.9684 32.7998 12.4004V30.5C32.7998 30.8713 32.9474 31.2277 33.21 31.4902C33.4725 31.7527 33.8289 31.9004 34.2002 31.9004C34.5714 31.9003 34.9279 31.7527 35.1904 31.4902C35.4529 31.2277 35.5996 30.8713 35.5996 30.5V25.7002C35.5996 24.2681 36.169 22.8945 37.1816 21.8818C38.1943 20.8691 39.5678 20.2998 41 20.2998C42.1045 20.2998 42.9999 21.1953 43 22.2998C43 23.4044 42.1046 24.2998 41 24.2998C40.6287 24.2998 40.2723 24.4474 40.0098 24.71C39.7473 24.9725 39.5996 25.3289 39.5996 25.7002V30.5C39.5996 31.9321 39.0312 33.3057 38.0186 34.3184C37.0059 35.331 35.6323 35.9003 34.2002 35.9004C32.7681 35.9004 31.3945 35.331 30.3818 34.3184C29.3691 33.3057 28.7998 31.9322 28.7998 30.5Z" fill="currentColor"/>
</svg>
