<svg width="48" height="48" viewBox="0 0 48 48" fill="none" xmlns="http://www.w3.org/2000/svg">
<path d="M40 22.7139C39.9999 21.6193 39.5514 20.5723 38.7588 19.8174L26.7588 8.38966C25.214 6.9184 22.786 6.9184 21.2412 8.38966L9.24121 19.8174C8.44859 20.5723 8.00011 21.6193 8 22.7139V37C8 39.2092 9.79087 41 12 41H36C38.2091 41 40 39.2092 40 37V22.7139ZM44 37C44 41.4183 40.4183 45 36 45H12C7.58172 45 4 41.4183 4 37V22.7139C4.00011 20.5246 4.89711 18.4308 6.48242 16.9209L18.4824 5.4922C21.5721 2.54972 26.4279 2.54972 29.5176 5.4922L41.5176 16.9209C43.1029 18.4308 43.9999 20.5246 44 22.7139V37Z" fill="currentColor"/>
<path d="M30.9306 27.999C31.4837 27.0429 32.7079 26.7155 33.664 27.2686C34.6199 27.8216 34.9462 29.045 34.3935 30.001C32.3216 33.5826 28.4441 36 23.9999 36C19.5557 36 15.6782 33.5826 13.6064 30.001C13.0537 29.0449 13.3809 27.8216 14.3368 27.2686C15.2929 26.7159 16.5163 27.0431 17.0693 27.999C18.4556 30.3952 21.0415 32 23.9999 32C26.9583 32 29.5443 30.3952 30.9306 27.999Z" fill="currentColor"/>
</svg>
