<svg width="48" height="48" viewBox="0 0 48 48" fill="none" xmlns="http://www.w3.org/2000/svg">
<path d="M19.6377 30.7061C22.0054 28.199 25.9946 28.199 28.3623 30.7061L37.2734 40.1406C37.8947 40.7983 39 40.3588 39 39.4541V13C39 9.68629 36.3137 7 33 7H15C11.6863 7 9 9.68629 9 13V39.4541C9 40.3588 10.1053 40.7983 10.7266 40.1406L19.6377 30.7061ZM43 39.4541C43 43.9777 37.4714 46.1761 34.3652 42.8877L25.4541 33.4521C24.6649 32.6166 23.3351 32.6166 22.5459 33.4521L13.6348 42.8877C10.5286 46.1761 5 43.9777 5 39.4541V13C5 7.47715 9.47715 3 15 3H33C38.5229 3 43 7.47715 43 13V39.4541Z" fill="currentColor"/>
<path d="M19.6377 30.7061C22.0054 28.199 25.9946 28.199 28.3623 30.7061L37.2734 40.1406C37.8947 40.7983 39 40.3588 39 39.4541V13C39 9.68629 36.3137 7 33 7H15C11.6863 7 9 9.68629 9 13V39.4541C9 40.3588 10.1053 40.7983 10.7266 40.1406L19.6377 30.7061Z" fill="currentColor"/>
</svg>
