<svg width="48" height="48" viewBox="0 0 48 48" fill="none" xmlns="http://www.w3.org/2000/svg">
<path d="M30 41C31.1046 41 32 41.8954 32 43C32 44.1046 31.1046 45 30 45H18C16.8954 45 16 44.1046 16 43C16 41.8954 16.8954 41 18 41H30Z" fill="currentColor"/>
<path d="M24 2C32.3125 2.00012 38.9998 8.6495 39 16.7891C39 19.7731 38.1015 22.5581 36.5537 24.8867C35.5196 26.4424 34.7453 27.606 34.2129 28.4102C33.9466 28.8123 33.7432 29.1214 33.5986 29.3428C33.5263 29.4536 33.4706 29.539 33.4307 29.6016C33.4023 29.6461 33.3881 29.6702 33.3828 29.6787C33.2278 29.947 33.0953 30.1696 32.9854 30.3545C32.8722 30.5448 32.7918 30.6791 32.7256 30.7939C32.5915 31.0265 32.5954 31.0474 32.6055 31.0146C32.6154 30.9817 32.6013 30.9965 32.584 31.2666C32.5755 31.3987 32.5677 31.5543 32.5566 31.7744C32.5458 31.9888 32.5322 32.2472 32.5127 32.5557C32.5007 32.7461 32.5 33.0692 32.5 33.9131C32.5 36.1418 30.6629 38 28.333 38H19.667C17.3371 38 15.5 36.1418 15.5 33.9131C15.5 33.0694 15.4983 32.7461 15.4863 32.5557C15.4668 32.2474 15.4542 31.9896 15.4434 31.7754C15.4322 31.5551 15.4245 31.3986 15.416 31.2666C15.3987 30.9977 15.3836 30.9827 15.3936 31.0156C15.4036 31.0486 15.4082 31.0285 15.2734 30.7949C15.207 30.6798 15.1261 30.5452 15.0127 30.3545C14.9027 30.1695 14.7712 29.947 14.6162 29.6787C14.6226 29.6899 14.6118 29.6728 14.5664 29.6016C14.5265 29.539 14.4717 29.4527 14.3994 29.3418C14.2551 29.1205 14.0511 28.8121 13.7852 28.4102C13.2534 27.6063 12.4802 26.4421 11.4463 24.8867C9.89846 22.5581 9.00004 19.7731 9 16.7891C9.00017 8.64951 15.6873 2 24 2Z" fill="currentColor"/>
</svg>
