<svg width="48" height="48" viewBox="0 0 48 48" fill="none" xmlns="http://www.w3.org/2000/svg">
<path d="M40 30C41.1046 30 42 30.8954 42 32V36H46C47.1046 36 48 36.8954 48 38C48 39.1046 47.1046 40 46 40H42V44C42 45.1046 41.1046 46 40 46C38.8954 46 38 45.1046 38 44V40H34C32.8954 40 32 39.1046 32 38C32 36.8954 32.8954 36 34 36H38V32C38 30.8954 38.8954 30 40 30Z" fill="currentColor"/>
<path d="M37 5C41.4183 5 45 8.58172 45 13V25C45 26.1046 44.1046 27 43 27C41.8954 27 41 26.1046 41 25V13C41 10.7909 39.2091 9 37 9H11C8.79086 9 7 10.7909 7 13V26.3643L9.9502 23.4141C12.2933 21.0713 16.0915 21.0713 18.4346 23.4141L28.6064 33.5859C29.3875 34.367 29.3875 35.633 28.6064 36.4141C27.8254 37.1951 26.5594 37.1951 25.7783 36.4141L15.6064 26.2422C14.8255 25.4615 13.5593 25.4615 12.7783 26.2422L7 32.0205V35C7 37.2091 8.79086 39 11 39H26C27.1046 39 28 39.8954 28 41C28 42.1046 27.1046 43 26 43H11C6.58172 43 3 39.4183 3 35V13C3 8.58172 6.58172 5 11 5H37Z" fill="currentColor"/>
<path d="M32 13C34.7614 13 37 15.2386 37 18C37 20.7614 34.7614 23 32 23C29.2386 23 27 20.7614 27 18C27 15.2386 29.2386 13 32 13Z" fill="currentColor"/>
</svg>
