<svg width="48" height="48" viewBox="0 0 48 48" fill="none" xmlns="http://www.w3.org/2000/svg">
<path d="M30.5 24C31.3864 24 31.1911 27.1793 32.5088 28.4971C33.8265 29.8089 37 29.6136 37 30.5C37 31.3864 33.8265 31.1911 32.5088 32.5088C31.1911 33.8265 31.3864 37 30.5 37C29.6136 37 29.8148 33.8265 28.4971 32.5088C27.1793 31.1911 24 31.3864 24 30.5C24 29.6136 27.1793 29.8089 28.4971 28.4971C29.8089 27.1793 29.6136 24 30.5 24Z" fill="currentColor"/>
<path d="M20.3262 11C21.5978 11.0002 21.3184 15.5615 23.209 17.4521C25.0998 19.3341 29.6523 19.0545 29.6523 20.3262C29.6521 21.5978 25.0996 21.3184 23.209 23.209C21.3184 25.0996 21.5978 29.6521 20.3262 29.6523C19.0545 29.6523 19.3425 25.0998 17.4521 23.209C15.5615 21.3184 11.0002 21.5978 11 20.3262C11 19.0544 15.5615 19.3343 17.4521 17.4521C19.3343 15.5615 19.0544 11 20.3262 11Z" fill="currentColor"/>
<path fill-rule="evenodd" clip-rule="evenodd" d="M36 4C40.4183 4 44 7.58172 44 12V36C44 40.2801 40.6389 43.7748 36.4121 43.9893L36 44H12L11.5879 43.9893C7.49764 43.7817 4.2183 40.5024 4.01074 36.4121L4 36V12C4 7.58172 7.58172 4 12 4H36ZM12 8C9.79086 8 8 9.79086 8 12V36C8 38.2091 9.79086 40 12 40H36C38.2091 40 40 38.2091 40 36V12C40 9.79086 38.2091 8 36 8H12Z" fill="currentColor"/>
</svg>
