<svg width="48" height="48" viewBox="0 0 48 48" fill="none" xmlns="http://www.w3.org/2000/svg">
<path fill-rule="evenodd" clip-rule="evenodd" d="M32.2002 5C36.6804 5 38.9206 5.0002 40.6318 5.87207C42.1371 6.63903 43.3609 7.86295 44.1279 9.36816C44.9999 11.0794 45 13.3197 45 17.7998V30.2002C45 34.6804 44.9998 36.9206 44.1279 38.6318C43.361 40.1371 42.1371 41.3609 40.6318 42.1279C38.9206 42.9999 36.6805 43 32.2002 43H15.7998C11.3195 43 9.07943 42.9999 7.36816 42.1279C5.8629 41.3609 4.63904 40.1371 3.87207 38.6318C3.00023 36.9206 3 34.6804 3 30.2002V17.7998C3 13.3197 3.00015 11.0794 3.87207 9.36816C4.63906 7.86295 5.86293 6.63903 7.36816 5.87207C9.07942 5.0002 11.3196 5 15.7998 5H32.2002ZM18.8125 23.2041C17.1959 21.5722 14.5661 21.6034 12.9883 23.2734L9.76172 26.6885C8.69421 27.8186 8.09172 29.3164 8.0752 30.8779L8.03223 34.8848C8.01416 36.5999 9.3869 38 11.0859 38H31.0127C31.9191 37.9997 32.3732 36.8933 31.7324 36.2461L18.8125 23.2041ZM32 13C29.2387 13 27.0001 15.2387 27 18C27 20.7614 29.2386 23 32 23C34.7614 23 37 20.7614 37 18C36.9999 15.2387 34.7613 13 32 13Z" fill="currentColor"/>
</svg>
