<svg width="48" height="48" viewBox="0 0 48 48" fill="none" xmlns="http://www.w3.org/2000/svg">
<path d="M32 13C34.7614 13 37 15.2386 37 18C37 20.7614 34.7614 23 32 23C29.2386 23 27 20.7614 27 18C27 15.2386 29.2386 13 32 13Z" fill="currentColor"/>
<path fill-rule="evenodd" clip-rule="evenodd" d="M37 5C41.4183 5 45 8.58172 45 13V35C45 39.2801 41.6389 42.7748 37.4121 42.9893L37 43H11L10.5879 42.9893C6.49764 42.7817 3.2183 39.5024 3.01074 35.4121L3 35V13C3 8.58172 6.58172 5 11 5H37ZM11 9C8.79086 9 7 10.7909 7 13V26.3643L9.9502 23.4141C12.2934 21.0712 16.0925 21.071 18.4355 23.4141L33.9141 38.8936C33.9482 38.9277 33.9795 38.964 34.0107 39H37C39.2091 39 41 37.2091 41 35V13C41 10.7909 39.2091 9 37 9H11ZM15.6064 26.2432C14.8254 25.4621 13.5594 25.4621 12.7783 26.2432L7 32.0205V35C7 37.2091 8.79086 39 11 39H28.3643L15.6064 26.2432Z" fill="currentColor"/>
</svg>
