<svg width="48" height="48" viewBox="0 0 48 48" fill="none" xmlns="http://www.w3.org/2000/svg">
<path d="M24 9.24698C26.9507 6.20099 30.9672 3.8964 35.2715 4.76847C37.8305 5.28704 41.2248 7.20979 43.4639 10.5116C45.8621 14.0485 46.7763 18.9224 44.54 24.7734C42.7974 29.3325 39.1369 33.4377 35.6201 36.5741C32.0498 39.7582 28.236 42.2882 25.6855 43.622C24.6299 44.174 23.37 44.174 22.3144 43.622C19.764 42.2882 15.9501 39.7582 12.3799 36.5741C8.86308 33.4377 5.20255 29.3325 3.45995 24.7734C1.22363 18.9224 2.13787 14.0485 4.53612 10.5116C6.7752 7.20979 10.1695 5.28704 12.7285 4.76847C17.0328 3.8964 21.0492 6.20099 24 9.24698ZM34.5498 8.33194C31.8557 7.78598 28.8189 9.30452 26.1621 12.2587C25.0103 13.539 22.9896 13.539 21.8379 12.2587C19.181 9.30452 16.1443 7.78598 13.4502 8.33194C11.8088 8.66459 9.24267 10.0505 7.54589 12.5526C5.84946 15.0545 5.02128 18.6742 6.85643 23.4755C8.29068 27.2277 11.4416 30.8644 14.8008 33.8603C18.1603 36.8563 21.7289 39.2117 24 40.3993L24.4404 40.163C26.7161 38.9147 30.0496 36.6692 33.1992 33.8603C36.5584 30.8644 39.7093 27.2277 41.1435 23.4755C42.9787 18.6742 42.1505 15.0545 40.4541 12.5526C38.7573 10.0505 36.1912 8.66459 34.5498 8.33194Z" fill="currentColor"/>
<path d="M34.5498 8.33194C31.8557 7.78598 28.8189 9.30452 26.1621 12.2587C25.0103 13.539 22.9896 13.539 21.8379 12.2587C19.181 9.30452 16.1443 7.78598 13.4502 8.33194C11.8088 8.66459 9.24267 10.0505 7.54589 12.5526C5.84946 15.0545 5.02128 18.6742 6.85643 23.4755C8.29068 27.2277 11.4416 30.8644 14.8008 33.8603C18.1603 36.8563 21.7289 39.2117 24 40.3993L24.4404 40.163C26.7161 38.9147 30.0496 36.6692 33.1992 33.8603C36.5584 30.8644 39.7093 27.2277 41.1435 23.4755C42.9787 18.6742 42.1505 15.0545 40.4541 12.5526C38.7573 10.0505 36.1912 8.66459 34.5498 8.33194Z" fill="currentColor"/>
</svg>
