<svg width="48" height="48" viewBox="0 0 48 48" fill="none" xmlns="http://www.w3.org/2000/svg">
<path d="M6.3223 41.1777C1.44074 36.2961 1.44074 28.3816 6.3223 23.5L9.85783 19.9645C10.6389 19.1834 11.9052 19.1834 12.6863 19.9645C13.4673 20.7455 13.4673 22.0118 12.6863 22.7929L9.15072 26.3284C5.83127 29.6479 5.83127 35.0298 9.15072 38.3492C12.4702 41.6687 17.8521 41.6687 21.1715 38.3492L24.7071 34.8137C25.4881 34.0327 26.7545 34.0327 27.5355 34.8137C28.3166 35.5948 28.3166 36.8611 27.5355 37.6421L24 41.1777C19.1184 46.0592 11.2039 46.0592 6.3223 41.1777ZM38.8492 8.65076C35.5298 5.3313 30.1479 5.3313 26.8284 8.65076L23.6464 11.8327C22.8654 12.6138 21.599 12.6138 20.818 11.8327C20.0369 11.0517 20.0369 9.78536 20.818 9.00431L24 5.82233C28.8815 0.940774 36.7961 0.940775 41.6776 5.82233C46.5592 10.7039 46.5592 18.6184 41.6776 23.5L38.3189 26.8588C37.5378 27.6398 36.2715 27.6398 35.4905 26.8588C34.7094 26.0777 34.7094 24.8114 35.4905 24.0303L38.8492 20.6716C42.1687 17.3521 42.1687 11.9702 38.8492 8.65076Z" fill="currentColor"/>
<path d="M27.8891 16.7825C28.6701 16.0014 29.9364 16.0014 30.7175 16.7825C31.4985 17.5635 31.4985 18.8299 30.7175 19.6109L19.0502 31.2782C18.2692 32.0592 17.0028 32.0592 16.2218 31.2782C15.4407 30.4971 15.4407 29.2308 16.2218 28.4497L27.8891 16.7825Z" fill="currentColor"/>
</svg>
