<svg width="48" height="48" viewBox="0 0 48 48" fill="none" xmlns="http://www.w3.org/2000/svg">
<path d="M30.6555 37.4115C30.8305 37.1883 31.1689 37.1884 31.344 37.4115C31.3989 37.4816 31.4501 37.6716 31.552 38.0502C31.6679 38.4807 31.7258 38.6965 31.8118 38.8871C32.0724 39.465 32.5356 39.9273 33.1135 40.1879C33.3042 40.2738 33.5197 40.3326 33.9504 40.4486C34.3288 40.5505 34.5181 40.6017 34.5881 40.6566C34.8111 40.8317 34.8113 41.1691 34.5881 41.3441C34.518 41.399 34.3288 41.4502 33.9504 41.5521C33.5198 41.6681 33.3041 41.726 33.1135 41.8119C32.5355 42.0725 32.0724 42.5356 31.8118 43.1136C31.7258 43.3043 31.668 43.5198 31.552 43.9506C31.4501 44.3288 31.3989 44.518 31.344 44.5883C31.169 44.8115 30.8305 44.8115 30.6555 44.5883C30.6006 44.5179 30.5502 44.3285 30.4485 43.9506C30.3325 43.5197 30.2737 43.3043 30.1877 43.1136C29.9272 42.5357 29.4648 42.0725 28.8869 41.8119C28.6963 41.7259 28.4805 41.668 28.05 41.5521C27.6714 41.4502 27.4814 41.3991 27.4114 41.3441C27.1884 41.1692 27.1885 40.8317 27.4114 40.6566C27.4814 40.6017 27.6708 40.5505 28.0491 40.4486C28.4798 40.3326 28.6963 40.2738 28.8869 40.1879C29.4646 39.9273 29.9272 39.4648 30.1877 38.8871C30.2737 38.6964 30.3325 38.4808 30.4485 38.0502C30.5504 37.6716 30.6005 37.4816 30.6555 37.4115Z" fill="currentColor"/>
<path fill-rule="evenodd" clip-rule="evenodd" d="M26.969 9.03064C30.3241 5.67554 35.7642 5.6756 39.1194 9.03064C42.474 12.3857 42.474 17.825 39.1194 21.1801L18.7297 41.5697C15.3747 44.9247 9.93448 44.9255 6.57933 41.5707C3.22442 38.2157 3.22464 32.7754 6.57933 29.4203L26.969 9.03064ZM9.40843 32.2484C7.61544 34.0414 7.61549 36.9485 9.40843 38.7416C11.2015 40.5343 14.1087 40.5345 15.9016 38.7416L31.4924 23.1488L24.9993 16.6556L9.40843 32.2484ZM36.2912 11.8588C34.4982 10.0658 31.5901 10.0658 29.7971 11.8588L27.8274 13.8275L34.3205 20.3207L36.2903 18.3519C38.0832 16.559 38.0839 13.6518 36.2912 11.8588Z" fill="currentColor"/>
<path d="M40.551 28.6195C40.7594 28.4709 41.0389 28.471 41.2473 28.6195C41.4224 28.7444 41.5429 29.191 41.7834 30.0844C42.013 30.9368 42.1274 31.3636 42.3401 31.7201C42.5949 32.1471 42.9521 32.5043 43.3791 32.7592C43.7356 32.9719 44.1624 33.0863 45.0149 33.3158C45.9083 33.5563 46.3548 33.6768 46.4797 33.8519C46.6283 34.0604 46.6283 34.3398 46.4797 34.5482C46.3549 34.7233 45.9084 34.8438 45.0149 35.0844C44.1624 35.3139 43.7356 35.4283 43.3791 35.641C42.9521 35.8958 42.5949 36.253 42.3401 36.6801C42.1274 37.0365 42.013 37.4633 41.7834 38.3158C41.5429 39.2093 41.4224 39.6558 41.2473 39.7806C41.0389 39.9292 40.7594 39.9292 40.551 39.7806C40.3759 39.6557 40.2554 39.2092 40.0149 38.3158C39.7854 37.4633 39.6709 37.0365 39.4582 36.6801C39.2034 36.253 38.8462 35.8958 38.4192 35.641C38.0627 35.4283 37.6359 35.3139 36.7834 35.0844C35.89 34.8438 35.4434 34.7233 35.3186 34.5482C35.17 34.3398 35.17 34.0603 35.3186 33.8519C35.4434 33.6768 35.89 33.5563 36.7834 33.3158C37.6359 33.0863 38.0627 32.9719 38.4192 32.7592C38.8462 32.5043 39.2034 32.1472 39.4582 31.7201C39.6709 31.3636 39.7854 30.9368 40.0149 30.0844C40.2554 29.1909 40.3759 28.7444 40.551 28.6195Z" fill="currentColor"/>
<path d="M10.4651 5.52869C10.7718 5.08513 11.4269 5.0852 11.7336 5.52869C11.8094 5.63821 11.8864 5.92191 12.0393 6.48962C12.1531 6.91226 12.2105 7.12389 12.2903 7.31287C12.5942 8.03249 13.1664 8.60553 13.886 8.90955C14.075 8.98936 14.2866 9.04674 14.7092 9.16052C15.2769 9.31337 15.5614 9.3895 15.6711 9.46521C16.1147 9.77193 16.1147 10.428 15.6711 10.7347C15.5615 10.8105 15.2771 10.8865 14.7092 11.0394C14.2866 11.1532 14.075 11.2106 13.886 11.2904C13.1664 11.5944 12.5942 12.1674 12.2903 12.8871C12.2104 13.0761 12.1531 13.2875 12.0393 13.7103C11.8864 14.2781 11.8094 14.5617 11.7336 14.6713C11.4269 15.1149 10.7718 15.1149 10.4651 14.6713C10.3894 14.5615 10.3122 14.2778 10.1594 13.7103C10.0456 13.2877 9.9892 13.0761 9.90941 12.8871C9.60544 12.1673 9.03249 11.5944 8.31273 11.2904C8.12371 11.2106 7.91226 11.1533 7.48949 11.0394C6.92158 10.8865 6.63712 10.8105 6.52758 10.7347C6.08423 10.428 6.08414 9.7719 6.52758 9.46521C6.63713 9.38946 6.92154 9.31344 7.48949 9.16052C7.91229 9.04668 8.1237 8.98938 8.31273 8.90955C9.03246 8.60557 9.60545 8.0326 9.90941 7.31287C9.98914 7.12395 10.0457 6.91209 10.1594 6.48962C10.3123 5.92197 10.3894 5.63828 10.4651 5.52869Z" fill="currentColor"/>
</svg>
