<svg width="48" height="48" viewBox="0 0 48 48" fill="none" xmlns="http://www.w3.org/2000/svg">
<path d="M24 4C18.5683 4 17.8872 4.02302 15.754 4.12036C13.6253 4.21745 12.1714 4.55557 10.8992 5.05001C9.58406 5.56105 8.46871 6.24491 7.35677 7.35677C6.24491 8.46871 5.56105 9.58406 5.05001 10.8992C4.55557 12.1714 4.21745 13.6253 4.12036 15.754C4.02302 17.8872 4 18.5683 4 24C4 29.4317 4.02302 30.1128 4.12036 32.246C4.21745 34.3747 4.55557 35.8286 5.05001 37.1008C5.56105 38.4159 6.24491 39.5313 7.35677 40.6432C8.46871 41.7551 9.58406 42.439 10.8992 42.9501C12.1714 43.4444 13.6253 43.7826 15.754 43.8796C17.8872 43.977 18.5683 44 24 44C29.4317 44 30.1128 43.977 32.246 43.8796C34.3747 43.7826 35.8286 43.4444 37.1008 42.9501C38.4159 42.439 39.5313 41.7551 40.6432 40.6432C41.7551 39.5313 42.439 38.4159 42.9501 37.1008C43.4444 35.8286 43.7826 34.3747 43.8796 32.246C43.977 30.1128 44 29.4317 44 24C44 18.5683 43.977 17.8872 43.8796 15.754C43.7826 13.6253 43.4444 12.1714 42.9501 10.8992C42.439 9.58406 41.7551 8.46871 40.6432 7.35677C39.5313 6.24491 38.4159 5.56105 37.1008 5.05001C35.8286 4.55557 34.3747 4.21745 32.246 4.12036C30.1128 4.02302 29.4317 4 24 4ZM24 8C29.2111 8 29.8284 8.01991 31.8863 8.1138C33.7892 8.20057 34.8226 8.51851 35.5103 8.78579C36.4212 9.13983 37.0714 9.56274 37.7543 10.2457C38.4373 10.9286 38.8602 11.5788 39.2142 12.4897C39.4815 13.1774 39.7994 14.2108 39.8862 16.1137C39.9801 18.1716 40 18.7889 40 24C40 29.2111 39.9801 29.8284 39.8862 31.8863C39.7994 33.7892 39.4815 34.8226 39.2142 35.5103C38.8602 36.4212 38.4373 37.0714 37.7543 37.7543C37.0714 38.4373 36.4212 38.8602 35.5103 39.2142C34.8226 39.4815 33.7892 39.7994 31.8863 39.8862C29.8287 39.9801 29.2115 40 24 40C18.7885 40 18.1714 39.9801 16.1137 39.8862C14.2108 39.7994 13.1774 39.4815 12.4897 39.2142C11.5788 38.8602 10.9286 38.4373 10.2457 37.7543C9.56282 37.0714 9.13983 36.4212 8.78579 35.5103C8.51851 34.8226 8.20057 33.7892 8.1138 31.8863C8.01991 29.8284 8 29.2111 8 24C8 18.7889 8.01991 18.1716 8.1138 16.1137C8.20057 14.2108 8.51851 13.1774 8.78579 12.4897C9.13983 11.5788 9.56274 10.9286 10.2457 10.2457C10.9286 9.56274 11.5788 9.13983 12.4897 8.78579C13.1774 8.51851 14.2108 8.20057 16.1137 8.1138C18.1716 8.01991 18.7889 8 24 8ZM14 24C14 18.4771 18.4771 14 24 14C29.5229 14 34 18.4771 34 24C34 29.5229 29.5229 34 24 34C18.4771 34 14 29.5229 14 24ZM24 30C27.3137 30 30 27.3137 30 24C30 20.6863 27.3137 18 24 18C20.6863 18 18 20.6863 18 24C18 27.3137 20.6863 30 24 30ZM34.6763 15.7248C36.0018 15.7248 37.0764 14.6503 37.0764 13.3248C37.0764 11.9994 36.0018 10.9248 34.6763 10.9248C33.3509 10.9248 32.2764 11.9994 32.2764 13.3248C32.2764 14.6503 33.3509 15.7248 34.6763 15.7248Z" fill="currentColor"/>
</svg>
