<svg width="48" height="48" viewBox="0 0 48 48" fill="none" xmlns="http://www.w3.org/2000/svg">
<path d="M25 2.99976H32C32 8.5226 36.4772 12.9998 42 12.9998V19.9998C38.2622 19.9998 34.8062 18.7935 32 16.749V30.9998C32 38.1795 26.1797 43.9998 19 43.9998C11.8203 43.9998 6 38.1795 6 30.9998C6 23.8201 11.8203 17.9998 19 17.9998C19.6801 17.9998 20.3481 18.052 21 18.1527V25.3412C20.3744 25.1201 19.7013 24.9998 19 24.9998C15.6863 24.9998 13 27.686 13 30.9998C13 34.3135 15.6863 36.9998 19 36.9998C22.3137 36.9998 25 34.3135 25 30.9998V2.99976Z" fill="currentColor"/>
</svg>
