<svg width="48" height="48" viewBox="0 0 48 48" fill="none" xmlns="http://www.w3.org/2000/svg">
<path fill-rule="evenodd" clip-rule="evenodd" d="M35.2712 2C38.3986 2 39.9657 4.73592 40.4421 8.16773C44.7569 9.15227 45.9445 11.107 45.9446 14.1926C45.9446 16.931 43.8168 18.7162 40.3704 20.6394L40.1796 30.8503C42.8931 31.0126 46 32.2496 46 35.6862C46 38.8873 43.1337 40.4534 39.5885 40.8887C38.6695 44.3763 36.683 46 34.3465 46C32.1365 46 30.2228 44.3878 27.8747 40.7948L17.5433 40.6016C17.4339 43.8148 15.9764 46 12.8951 46C9.22298 46 7.83004 43.756 7.30221 40.0521C3.68289 39.156 2.00004 37.1402 2 34.7615C2 32.598 3.545 30.7184 6.98101 28.4372V17.936C3.99744 17.7176 2.00001 16.256 2 13.31C2 9.7173 4.14795 8.30611 7.70977 7.75244C8.67972 3.27889 10.6462 2.05565 13.7777 2.05564C16.4536 2.05564 18.2192 4.0875 20.0929 7.39602H30.4696C30.732 4.79343 32.0127 2.00005 35.2712 2ZM16.6296 32.7291C16.4236 32.8323 16.2306 32.9319 16.0495 33.0273L16.5582 34.5967C16.7808 35.2888 16.9671 35.969 17.1162 36.6313C17.8361 36.4713 18.6783 36.2228 19.689 35.9069L24.1862 34.5215L21.6907 30.1639L16.6296 32.7291ZM29.6564 26.1265L32.3143 31.3704C32.4135 31.5686 32.5095 31.7547 32.6015 31.9299L32.8724 31.8465C34.2328 31.4249 35.3333 31.1773 36.2483 31.0323C36.0905 30.2803 35.8299 29.392 35.4921 28.3111L34.122 23.8629L29.6564 26.1265ZM13.4032 16.9731C12.5998 17.2315 11.8124 17.441 11.0504 17.6L13.3439 24.6778L17.4619 22.3197C16.7096 20.4685 16.0953 18.3434 15.8763 16.1715L13.4032 16.9731ZM23.3786 13.7406L25.5105 17.9468C27.3905 17.1672 29.5655 16.524 31.7911 16.2948L31.4317 15.1278C30.9564 13.5942 30.7023 12.3909 30.5669 11.4112L23.3786 13.7406ZM40.6015 10.8881C40.5947 11.4097 40.5684 11.9349 40.5233 12.4577L40.4449 16.6429C41.9532 16.298 42.7182 15.2599 42.7182 14.1045C42.7182 12.6518 41.9109 11.5498 40.6015 10.8881ZM13.6894 5.28195C12.204 5.28197 11.0854 6.12601 10.4291 7.48775C11.9999 7.40321 13.746 7.39602 15.6284 7.39602H16.1887C15.8089 5.9931 14.8034 5.28195 13.6894 5.28195Z" fill="currentColor"/>
</svg>
