<svg width="48" height="48" viewBox="0 0 48 48" fill="none" xmlns="http://www.w3.org/2000/svg">
<path d="M24.4065 4C29.9072 4 34.5273 5.98155 38.0616 9.20854L32.2086 14.9454C30.0936 12.9637 27.4027 11.9542 24.4065 11.9542C19.0916 11.9544 14.593 15.4725 12.9883 20.1992L12.8443 20.6525C12.5264 21.7198 12.3489 22.8452 12.3489 23.9984C12.3489 25.3166 12.58 26.5989 12.9883 27.7987L12.9852 27.8008H12.9883C14.593 32.5276 19.0916 36.0456 24.4065 36.0458C27.1524 36.0458 29.4908 35.337 31.3184 34.137V34.1349C33.4796 32.7168 34.9179 30.5988 35.391 28.0989H24.4076V20.3626H43.6279C43.8692 21.6716 43.999 23.0357 43.999 24.4538C43.9989 30.5445 41.7725 35.6715 37.9136 39.1533C34.5371 42.2077 29.9166 44 24.4065 44C16.4291 43.9998 9.52791 39.5177 6.16997 32.9816V32.9774C4.78871 30.2782 4 27.2246 4 23.9984C4.00007 20.7719 4.78824 17.7179 6.16997 15.0184L6.4948 14.4109C9.96003 8.20582 16.6785 4.00018 24.4065 4Z" fill="currentColor"/>
</svg>
