<svg width="48" height="48" viewBox="0 0 48 48" fill="none" xmlns="http://www.w3.org/2000/svg">
<path d="M39 17C40.1046 17 41 17.8954 41 19V23.2227C40.9999 27.682 39.201 31.9527 36.0098 35.0967C33.2942 37.7719 29.7596 39.4449 25.9932 39.8838C25.9954 39.9223 26 39.9609 26 40V44C26 45.1046 25.1046 46 24 46C22.8954 46 22 45.1046 22 44V40C22 39.9606 22.0036 39.9216 22.0059 39.8828C18.2398 39.4438 14.7056 37.7716 11.9902 35.0967C8.79899 31.9527 7.00012 27.682 7 23.2227V19C7 17.8954 7.89543 17 9 17C10.1046 17 11 17.8954 11 19V23.2227C11.0001 26.6017 12.3622 29.8485 14.7969 32.2471C17.2326 34.6467 20.5426 36 24 36C27.4574 36 30.7674 34.6467 33.2031 32.2471C35.6378 29.8485 36.9999 26.6017 37 23.2227V19C37 17.8954 37.8954 17 39 17Z" fill="currentColor"/>
<path d="M24 2C28.6702 2 33 5.30359 33 10V24C33 28.6964 28.6702 32 24 32C19.3298 32 15 28.6964 15 24V10C15 5.30359 19.3298 2 24 2Z" fill="currentColor"/>
</svg>
