<svg width="48" height="48" viewBox="0 0 48 48" fill="none" xmlns="http://www.w3.org/2000/svg">
<path d="M18.101 3.37503C18.408 2.44198 19.3468 1.87 20.3168 2.02542C21.2867 2.18098 22.0004 3.01772 22.0004 4.00003V38C22.0004 41.3136 19.3139 43.9999 16.0004 44H7.50037C6.859 44 6.25638 43.6924 5.88025 43.1729C5.50413 42.6532 5.4005 41.9844 5.60095 41.375L18.101 3.37503ZM27.684 2.02542C28.6538 1.87013 29.5928 2.44201 29.8998 3.37503L42.3998 41.375C42.6002 41.9843 42.4965 42.6533 42.1205 43.1729C41.7444 43.6924 41.1417 44 40.5004 44H32.0004C28.6867 44 26.0004 41.3137 26.0004 38V4.00003C26.0004 3.01762 26.7139 2.18087 27.684 2.02542ZM10.2631 40H16.0004C17.1048 39.9999 18.0004 39.1045 18.0004 38V16.4785L10.2631 40ZM30.0004 38C30.0004 39.1046 30.8958 40 32.0004 40H37.7377L30.0004 16.4785V38Z" fill="currentColor"/>
</svg>
