<svg width="48" height="48" viewBox="0 0 48 48" fill="none" xmlns="http://www.w3.org/2000/svg">
<path fill-rule="evenodd" clip-rule="evenodd" d="M34.2852 3.51237C35.1667 3.39893 36.491 3.46443 37.6875 4.15495C39.0763 4.95658 39.9999 6.4338 40 8.49967V20.9997C40 22.1042 39.1046 22.9997 38 22.9997C36.8954 22.9997 36 22.1042 36 20.9997V17.7077L18.2539 19.9831C18.1686 19.994 18.0838 19.9966 18 19.9967V36.9997C18 40.8657 14.866 43.9997 11 43.9997C7.13401 43.9997 4 40.8657 4 36.9997C4.00019 33.1338 7.13412 29.9997 11 29.9997C12.0736 29.9997 13.0908 30.2416 14 30.6735V12.3698C14.0002 8.86625 16.5905 5.9015 20.0625 5.43229L34.2324 3.51725C34.25 3.51489 34.2677 3.51427 34.2852 3.51237ZM34.7832 7.47819C34.7779 7.47895 34.7729 7.48138 34.7676 7.4821L20.5986 9.39616C19.1107 9.59723 18.0002 10.8684 18 12.3698V15.9831L36 13.6755V8.49967C36 8.08236 35.9151 7.88032 35.8701 7.79948C35.8274 7.72283 35.7729 7.66908 35.6875 7.61979C35.589 7.56296 35.4432 7.51082 35.2559 7.48405C35.068 7.45726 34.8942 7.4624 34.7832 7.47819Z" fill="currentColor"/>
<path d="M38 24.9997C39.1045 24.9997 39.9998 25.8953 40 26.9997V30.9997H44C45.1045 30.9997 45.9998 31.8953 46 32.9997C46 34.1042 45.1046 34.9997 44 34.9997H40V38.9997C40 40.1042 39.1046 40.9997 38 40.9997C36.8954 40.9997 36 40.1042 36 38.9997V34.9997H32C30.8954 34.9997 30 34.1042 30 32.9997C30.0002 31.8953 30.8955 30.9997 32 30.9997H36V26.9997C36.0002 25.8953 36.8955 24.9997 38 24.9997Z" fill="currentColor"/>
</svg>
