<svg width="48" height="48" viewBox="0 0 48 48" fill="none" xmlns="http://www.w3.org/2000/svg">
<path fill-rule="evenodd" clip-rule="evenodd" d="M35.2686 3.51477C36.15 3.39834 37.4834 3.46045 38.6875 4.15539C40.0764 4.95708 41 6.4341 41 8.50012V32.0001C41 32.1168 40.987 32.2307 40.9678 32.3419C40.988 32.5586 41 32.7781 41 33.0001C40.9999 36.8661 37.866 40.0001 34 40.0001C30.134 40.0001 27.0001 36.8661 27 33.0001C27 29.1341 30.134 26.0001 34 26.0001C35.0736 26.0001 36.0907 26.242 37 26.674V17.5792L18.2539 19.9835C18.1686 19.9944 18.0838 19.9971 18 19.9972V37.0001L17.9912 37.3605C17.8036 41.0589 14.7451 44.0001 11 44.0001C7.13405 44.0001 4.00007 40.8661 4 37.0001C4 33.1341 7.13401 30.0001 11 30.0001C12.0736 30.0001 13.0907 30.242 14 30.674V12.3995C14.0002 8.87807 16.6165 5.90521 20.1094 5.45715L35.2461 3.51672C35.2535 3.51577 35.2611 3.51564 35.2686 3.51477ZM35.7832 7.47961C35.778 7.48035 35.7727 7.47989 35.7676 7.48059C35.763 7.48121 35.7585 7.48293 35.7539 7.48352L20.6182 9.42395C19.1214 9.616 18.0002 10.8905 18 12.3995V15.9835L37 13.548V8.50012C37 8.08275 36.9151 7.88085 36.8701 7.79993C36.8274 7.72316 36.7729 7.66957 36.6875 7.62024C36.589 7.56338 36.4433 7.51128 36.2559 7.4845C36.0679 7.45769 35.8942 7.4638 35.7832 7.47961Z" fill="currentColor"/>
</svg>
