<svg width="48" height="48" viewBox="0 0 48 48" fill="none" xmlns="http://www.w3.org/2000/svg">
<path d="M36.2539 11.1998C34.8871 9.83294 32.671 9.83294 31.3042 11.1998L29.1829 13.3211L34.1326 18.2708L36.2539 16.1495C37.6208 14.7827 37.6208 12.5666 36.2539 11.1998ZM14.8978 27.6062C14.4419 28.0621 14.062 28.5887 13.7736 29.1654L10.602 35.5107C10.1722 36.3703 11.0834 37.2815 11.943 36.8517L18.2883 33.6801C18.865 33.3918 19.3916 33.0118 19.8475 32.5559L31.3042 21.0993L26.3544 16.1495L14.8978 27.6062ZM39.0824 8.37135C42.0113 11.3003 42.0113 16.049 39.0824 18.978L22.676 35.3843C21.916 36.1442 21.0387 36.7771 20.0775 37.2578L13.7315 40.4301C9.43399 42.5784 4.87534 38.0198 7.02364 33.7222L10.196 27.3762C10.6766 26.415 11.3095 25.5377 12.0694 24.7777L28.4758 8.37135C31.4047 5.44242 36.1534 5.44242 39.0824 8.37135Z" fill="currentColor"/>
<path d="M40 37C41.1046 37 42 37.8954 42 39C42 40.1046 41.1046 41 40 41H26C24.8955 41 24 40.1046 24 39C24 37.8954 24.8955 37 26 37H40Z" fill="currentColor"/>
</svg>
