<svg width="48" height="48" viewBox="0 0 48 48" fill="none" xmlns="http://www.w3.org/2000/svg">
<path d="M10.4998 25.2985C10.6583 25.0472 10.8444 24.8143 11.0546 24.6041L28.416 7.24265C30.7592 4.8995 34.5582 4.8995 36.9013 7.24265C39.2444 9.5858 39.2444 13.3848 36.9013 15.7279L19.5398 33.0894C19.3297 33.2995 19.0968 33.4856 18.8454 33.6442L11.1851 38.4761C7.58133 40.7492 3.39475 36.5626 5.66789 32.9589L10.4998 25.2985Z" fill="currentColor"/>
<path d="M42 37C43.1046 37 44 37.8954 44 39C44 40.1046 43.1046 41 42 41H19C17.8955 41 17 40.1046 17 39C17 37.8954 17.8955 37 19 37H42Z" fill="currentColor"/>
</svg>
