<svg width="48" height="48" viewBox="0 0 48 48" fill="none" xmlns="http://www.w3.org/2000/svg">
<path d="M22 4C23.1046 4 24 4.89543 24 6C24 7.10457 23.1046 8 22 8H12C9.79086 8 8 9.79086 8 12V36C8 38.2091 9.79086 40 12 40H36C38.2091 40 40 38.2091 40 36V26C40 24.8954 40.8954 24 42 24C43.1046 24 44 24.8954 44 26V36C44 40.4183 40.4183 44 36 44H12C7.58172 44 4 40.4183 4 36V12C4 7.58172 7.58172 4 12 4H22Z" fill="currentColor"/>
<path d="M36.8721 16.1162L25.4404 27.5479C25.3155 27.6727 25.1767 27.7837 25.0273 27.8779L20.4736 30.751C18.3309 32.1026 15.8418 29.6135 17.1934 27.4707L20.0654 22.916C20.1596 22.7666 20.2707 22.6278 20.3955 22.5029L31.8271 11.0713L36.8721 16.1162Z" fill="currentColor"/>
<path d="M36.376 6.52246C37.7692 5.12952 40.0277 5.12952 41.4209 6.52246C42.8141 7.91563 42.8139 10.1741 41.4209 11.5674L39.7012 13.2881L34.6562 8.24219L36.376 6.52246Z" fill="currentColor"/>
</svg>
