<svg width="48" height="48" viewBox="0 0 48 48" fill="none" xmlns="http://www.w3.org/2000/svg">
<path d="M27.2938 6.22033C27.8494 4.59322 30.1507 4.59322 30.7063 6.22033L32.73 12.1465C32.9104 12.6747 33.3253 13.0897 33.8536 13.2701L39.7797 15.2937C41.4068 15.8494 41.4068 18.1506 39.7797 18.7062L33.8536 20.7299C33.3253 20.9103 32.9104 21.3253 32.73 21.8535L30.7063 27.7797C30.1507 29.4068 27.8494 29.4068 27.2938 27.7797L25.2701 21.8535C25.0897 21.3253 24.6748 20.9103 24.1465 20.7299L18.2204 18.7063C16.5933 18.1506 16.5933 15.8494 18.2204 15.2937L24.1465 13.2701C24.6748 13.0897 25.0897 12.6747 25.2701 12.1465L27.2938 6.22033Z" fill="currentColor"/>
<path d="M5.4563 8.00991C7.70566 5.34008 12.0019 2.38991 18.8289 3.52773C19.9183 3.70938 20.6549 4.73932 20.4733 5.82879C20.2918 6.91823 19.261 7.65405 18.1715 7.47263C12.9985 6.61046 10.0383 8.77946 8.51534 10.5872C6.41477 13.0807 5.87958 16.8189 7.1506 21.1343C8.41644 25.4319 11.4272 30.0519 15.9636 33.874C20.5001 37.696 25.5641 39.8789 30.0142 40.397C34.4827 40.9172 38.0759 39.7554 40.1767 37.2621C42.3723 34.656 42.859 30.6816 41.3587 26.1256C41.0132 25.0765 41.5831 23.9456 42.6322 23.6001C43.6812 23.2546 44.8115 23.8253 45.1571 24.8743C46.9225 30.2354 46.6258 35.8156 43.2357 39.8393C39.9952 43.6854 34.8667 44.9883 29.5519 44.3696C24.2186 43.7487 18.4376 41.1887 13.3864 36.933C8.33515 32.6773 4.83113 27.4146 3.3141 22.2641C1.80237 17.1314 2.21603 11.8562 5.4563 8.00991Z" fill="currentColor"/>
</svg>
