<svg width="48" height="48" viewBox="0 0 48 48" fill="none" xmlns="http://www.w3.org/2000/svg">
<path d="M24 2C29.799 2 34.5 6.70101 34.5 12.5C34.5 18.299 29.799 23 24 23C18.201 23 13.5 18.299 13.5 12.5C13.5 6.70101 18.201 2 24 2ZM24 6C20.4101 6 17.5 8.91015 17.5 12.5C17.5 16.0899 20.4101 19 24 19C27.5899 19 30.5 16.0899 30.5 12.5C30.5 8.91015 27.5899 6 24 6Z" fill="currentColor"/>
<path d="M40 37C40 36.4997 39.7614 35.7504 39.0205 34.8193C38.2923 33.9043 37.1743 32.9404 35.7012 32.0596C32.7565 30.2989 28.6118 29 24 29C19.3882 29 15.2435 30.2989 12.2988 32.0596C10.8257 32.9404 9.70767 33.9043 8.97949 34.8193C8.23862 35.7504 8 36.4997 8 37C8 37.4285 8.17528 37.923 8.79004 38.5059C9.43306 39.1154 10.4781 39.7337 11.9619 40.2793C14.9227 41.368 19.1682 42 24 42C28.8318 42 33.0773 41.368 36.0381 40.2793C37.5219 39.7337 38.5669 39.1154 39.21 38.5059C39.8247 37.923 40 37.4285 40 37ZM44 37C44 38.7806 43.1676 40.2654 41.9609 41.4092C40.7823 42.5263 39.1912 43.3822 37.418 44.0342C33.8641 45.3409 29.1092 46 24 46C18.8908 46 14.1359 45.3409 10.582 44.0342C8.80884 43.3822 7.21766 42.5263 6.03906 41.4092C4.8324 40.2654 4 38.7806 4 37C4 35.2913 4.76895 33.6861 5.84961 32.3281C6.94313 30.954 8.46193 29.6938 10.2461 28.627C13.8161 26.4923 18.6709 25 24 25C29.3291 25 34.1839 26.4923 37.7539 28.627C39.5381 29.6938 41.0569 30.954 42.1504 32.3281C43.231 33.6861 44 35.2913 44 37Z" fill="currentColor"/>
</svg>
