<svg width="48" height="48" viewBox="0 0 48 48" fill="none" xmlns="http://www.w3.org/2000/svg">
<path d="M24 2C29.799 2 34.5 6.70101 34.5 12.5C34.5 18.299 29.799 23 24 23C18.201 23 13.5 18.299 13.5 12.5C13.5 6.70101 18.201 2 24 2Z" fill="currentColor"/>
<path d="M44 37C44 38.7806 43.1676 40.2654 41.9609 41.4092C40.7823 42.5263 39.1912 43.3822 37.418 44.0342C33.8641 45.3409 29.1092 46 24 46C18.8908 46 14.1359 45.3409 10.582 44.0342C8.80884 43.3822 7.21766 42.5263 6.03906 41.4092C4.8324 40.2654 4 38.7806 4 37C4 35.2913 4.76895 33.6861 5.84961 32.3281C6.94313 30.954 8.46193 29.6938 10.2461 28.627C13.8161 26.4923 18.6709 25 24 25C29.3291 25 34.1839 26.4923 37.7539 28.627C39.5381 29.6938 41.0569 30.954 42.1504 32.3281C43.231 33.6861 44 35.2913 44 37Z" fill="currentColor"/>
</svg>
