<svg width="48" height="48" viewBox="0 0 48 48" fill="none" xmlns="http://www.w3.org/2000/svg">
<path fill-rule="evenodd" clip-rule="evenodd" d="M5 20C6.10457 20 7 20.8954 7 22V26.3643L9.9502 23.4141C12.2934 21.0712 16.0925 21.071 18.4355 23.4141L33.9141 38.8936C33.9482 38.9277 33.9796 38.964 34.0107 39H37C39.2091 39 41 37.2091 41 35V33C41 31.8954 41.8954 31 43 31C44.1046 31 45 31.8954 45 33V35C45 39.4183 41.4183 43 37 43H11C6.91606 43 3.54804 39.9397 3.06152 35.9873C3.02241 35.8312 3 35.6682 3 35.5V22C3 20.8954 3.89543 20 5 20ZM15.6064 26.2432C14.8254 25.4621 13.5594 25.4621 12.7783 26.2432L7 32.0205V35C7 37.2091 8.79086 39 11 39H28.3643L15.6064 26.2432Z" fill="currentColor"/>
<path d="M43 20C44.1046 20 45 20.8954 45 22V26C45 27.1046 44.1046 28 43 28C41.8954 28 41 27.1046 41 26V22C41 20.8954 41.8954 20 43 20Z" fill="currentColor"/>
<path d="M32 13C34.7614 13 37 15.2386 37 18C37 20.7614 34.7614 23 32 23C29.2386 23 27 20.7614 27 18C27 15.2386 29.2386 13 32 13Z" fill="currentColor"/>
<path d="M13 5C14.1046 5 15 5.89543 15 7C15 8.10457 14.1046 9 13 9H11C8.79086 9 7 10.7909 7 13V15C7 16.1046 6.10457 17 5 17C3.89543 17 3 16.1046 3 15V13C3 8.58172 6.58172 5 11 5H13Z" fill="currentColor"/>
<path d="M37 5C41.4183 5 45 8.58172 45 13V15C45 16.1046 44.1046 17 43 17C41.8954 17 41 16.1046 41 15V13C41 10.7909 39.2091 9 37 9H35C33.8954 9 33 8.10457 33 7C33 5.89543 33.8954 5 35 5H37Z" fill="currentColor"/>
<path d="M27 5C28.1046 5 29 5.89543 29 7C29 8.10457 28.1046 9 27 9H21C19.8954 9 19 8.10457 19 7C19 5.89543 19.8954 5 21 5H27Z" fill="currentColor"/>
</svg>
