<svg width="48" height="48" viewBox="0 0 48 48" fill="none" xmlns="http://www.w3.org/2000/svg">
<path d="M42 22C43.1045 22.0001 44 22.8955 44 24C44 32.8365 36.8365 39.9999 28 40H19V43.2227C19 45.388 16.6442 46.7179 14.8086 45.5889L6.31836 40.3662C4.56069 39.285 4.56069 36.715 6.31836 35.6338L14.8086 30.4111C16.6442 29.2821 19 30.612 19 32.7773V36H28C34.6274 35.9999 40 30.6274 40 24C40 22.8954 40.8954 22 42 22Z" fill="currentColor"/>
<path d="M30 4.77734C30 2.61199 32.3558 1.28201 34.1914 2.41113L42.6816 7.63379C44.4393 8.71498 44.4393 11.285 42.6816 12.3662L34.1914 17.5889C32.3558 18.718 30 17.388 30 15.2227V12H21C14.3726 12 9 17.3726 9 24C9 25.1046 8.10457 26 7 26C5.89543 26 5 25.1046 5 24C5 15.1634 12.1634 8 21 8H30V4.77734Z" fill="currentColor"/>
</svg>
