<svg preserveAspectRatio="none" width="100%" height="100%" overflow="visible" style="display: block;" viewBox="0 0 16.3832 9.84473" fill="none" xmlns="http://www.w3.org/2000/svg">
<g id="Signal">
<path id="Cellular Connection" d="M1.91406 6.15234C2.44251 6.15234 2.87086 6.56567 2.87109 7.0752V8.92188C2.87084 9.43138 2.4425 9.84473 1.91406 9.84473H0.957031C0.428625 9.84469 0.000249245 9.43136 0 8.92188V7.0752C0.00023055 6.56569 0.428614 6.15238 0.957031 6.15234H1.91406ZM6.41797 4.30664C6.94645 4.30664 7.37483 4.71992 7.375 5.22949V8.92188C7.37476 9.43139 6.94641 9.84473 6.41797 9.84473H5.46094C4.93257 9.84464 4.50415 9.43134 4.50391 8.92188V5.22949C4.50408 4.71997 4.93253 4.30672 5.46094 4.30664H6.41797ZM10.9219 2.15332C11.4504 2.15332 11.8788 2.56657 11.8789 3.07617V8.92188C11.8787 9.43142 11.4503 9.84473 10.9219 9.84473H9.96484C9.4365 9.84459 9.00802 9.43134 9.00781 8.92188V3.07617C9.00794 2.56665 9.43645 2.15345 9.96484 2.15332H10.9219ZM15.4258 0C15.9543 0 16.3828 0.413169 16.3828 0.922852V8.92188C16.3826 9.4314 15.9542 9.84473 15.4258 9.84473H14.4688C13.9404 9.84465 13.5119 9.43136 13.5117 8.92188V0.922852C13.5118 0.413217 13.9403 7.8265e-05 14.4688 0H15.4258Z" fill="currentColor"/>
</g>
</svg>
