<svg width="48" height="48" viewBox="0 0 48 48" fill="none" xmlns="http://www.w3.org/2000/svg">
<path d="M19 27C21.2091 27 23 28.7909 23 31V37C23 39.2091 21.2091 41 19 41C16.7909 41 15 39.2091 15 37V36H6C4.89543 36 4 35.1046 4 34C4 32.8954 4.89543 32 6 32H15V31C15 28.7909 16.7909 27 19 27Z" fill="currentColor"/>
<path d="M42.2109 32C43.199 32.0002 44 32.8956 44 34C44 35.1044 43.199 35.9998 42.2109 36H28.7891C27.801 35.9998 27 35.1044 27 34C27 32.8956 27.801 32.0002 28.7891 32H42.2109Z" fill="currentColor"/>
<path d="M34 7C36.2091 7 38 8.79086 38 11V12H42C43.1046 12 44 12.8954 44 14C44 15.1046 43.1046 16 42 16H38V17C38 19.2091 36.2091 21 34 21C31.7909 21 30 19.2091 30 17V11C30 8.79086 31.7909 7 34 7Z" fill="currentColor"/>
<path d="M24 12C25.1046 12 26 12.8954 26 14C26 15.1046 25.1046 16 24 16H6C4.89543 16 4 15.1046 4 14C4 12.8954 4.89543 12 6 12H24Z" fill="currentColor"/>
</svg>
