<svg width="48" height="48" viewBox="0 0 48 48" fill="none" xmlns="http://www.w3.org/2000/svg">
<path d="M21.4854 5.08115C22.6959 3.67687 25 4.53278 25 6.38682V41.9347C24.9998 43.749 22.778 44.6255 21.5391 43.2999L12.6641 33.8038C12.2859 33.3992 11.756 33.17 11.2021 33.17H7C5.3432 33.17 4.00008 31.8268 4 30.17V19.003C4.0001 17.3463 5.3432 16.003 7 16.003H11.1543C11.7362 16.003 12.289 15.7494 12.6689 15.3087L21.4854 5.08115ZM37.3828 10.8233C38.0328 9.93058 39.2838 9.73323 40.1768 10.3829C41.8371 11.5919 43.0097 13.7284 43.7715 16.0694C44.5553 18.4785 45 21.394 45 24.5001C45 27.6062 44.5553 30.5217 43.7715 32.9308C43.0097 35.2718 41.8371 37.4083 40.1768 38.6173C39.2839 39.2669 38.0329 39.0695 37.3828 38.1769C36.7331 37.284 36.9306 36.033 37.8232 35.3829C38.4825 34.9026 39.3097 33.715 39.9678 31.6925C40.6039 29.7372 41 27.2468 41 24.5001C41 21.7534 40.6039 19.263 39.9678 17.3077C39.3097 15.2852 38.4825 14.0977 37.8232 13.6173C36.9306 12.9673 36.7332 11.7162 37.3828 10.8233ZM30.3604 16.8546C30.9931 15.9494 32.2402 15.7281 33.1455 16.3605C34.2329 17.1206 34.916 18.3896 35.3291 19.6085C35.7634 20.8899 36 22.4078 36 24.0001C36 25.5924 35.7634 27.1103 35.3291 28.3917C34.916 29.6106 34.2329 30.8797 33.1455 31.6397C32.2403 32.2721 30.9931 32.0507 30.3604 31.1456C29.728 30.2404 29.9495 28.9932 30.8545 28.3605C30.9277 28.3089 31.2447 27.9818 31.541 27.1075C31.8167 26.2941 32 25.2171 32 24.0001C32 22.7831 31.8167 21.7061 31.541 20.8927C31.2448 20.0187 30.9279 19.6915 30.8545 19.6397C29.9494 19.007 29.7281 17.7598 30.3604 16.8546Z" fill="currentColor"/>
</svg>
