<svg width="48" height="48" viewBox="0 0 48 48" fill="none" xmlns="http://www.w3.org/2000/svg">
<path d="M20.4854 5.08115C21.6959 3.67687 24 4.53278 24 6.38682V41.9347C23.9998 43.749 21.778 44.6255 20.5391 43.2999L11.6641 33.8038C11.2859 33.3992 10.756 33.17 10.2021 33.17H6C4.3432 33.17 3.00008 31.8268 3 30.17V19.003C3.0001 17.3463 4.3432 16.003 6 16.003H10.1543C10.7362 16.003 11.289 15.7494 11.6689 15.3087L20.4854 5.08115Z" fill="currentColor"/>
<path d="M29.5469 16.547C30.3279 15.7659 31.6575 15.8294 32.5166 16.6886L37.3242 21.4962L42.1328 16.6886C42.992 15.8294 44.3225 15.7659 45.1035 16.547C45.884 17.3281 45.8207 18.6577 44.9619 19.5167L40.1533 24.3243L44.9619 29.1329C45.8208 29.9921 45.8845 31.3226 45.1035 32.1036C44.3225 32.8845 42.992 32.8209 42.1328 31.962L37.3242 27.1534L32.5166 31.962C31.6576 32.8208 30.3279 32.8841 29.5469 32.1036C28.7658 31.3226 28.8294 29.9921 29.6885 29.1329L34.4961 24.3243L29.6885 19.5167C28.8293 18.6576 28.7659 17.328 29.5469 16.547Z" fill="currentColor"/>
</svg>
