<svg width="48" height="48" viewBox="0 0 48 48" fill="none" xmlns="http://www.w3.org/2000/svg">
<path fill-rule="evenodd" clip-rule="evenodd" d="M24 2C36.1503 2 46 11.8497 46 24C46 36.1503 36.1503 46 24 46C11.8497 46 2 36.1503 2 24C2 11.8497 11.8497 2 24 2ZM24 6C14.0589 6 6 14.0589 6 24C6 33.9411 14.0589 42 24 42C33.9411 42 42 33.9411 42 24C42 14.0589 33.9411 6 24 6Z" fill="currentColor"/>
<path d="M15 17.5C15 16.1193 16.1193 15 17.5 15C18.8807 15 20 16.1193 20 17.5V20.5C20 21.8807 18.8807 23 17.5 23C16.1193 23 15 21.8807 15 20.5V17.5Z" fill="currentColor"/>
<path d="M30.5 15C29.1193 15 28 16.1193 28 17.5V20.5C28 21.8807 29.1193 23 30.5 23C31.8807 23 33 21.8807 33 20.5V17.5C33 16.1193 31.8807 15 30.5 15Z" fill="currentColor"/>
<path d="M30.593 27.9994C31.146 27.0433 32.3702 26.7159 33.3264 27.2689C34.2822 27.822 34.6086 29.0454 34.0559 30.0014C31.984 33.583 28.1065 36.0004 23.6623 36.0004C19.2181 36.0004 15.3406 33.5829 13.2687 30.0014C12.716 29.0453 13.0432 27.8219 13.9992 27.2689C14.9553 26.7162 16.1786 27.0434 16.7316 27.9994C18.1179 30.3956 20.7039 32.0004 23.6623 32.0004C26.6207 32.0004 29.2066 30.3955 30.593 27.9994Z" fill="currentColor"/>
</svg>
