<svg width="48" height="48" viewBox="0 0 48 48" fill="none" xmlns="http://www.w3.org/2000/svg">
<path fill-rule="evenodd" clip-rule="evenodd" d="M35.5 11.54C39.9183 11.54 43.5 15.1218 43.5 19.54V38.54C43.4999 39.6445 42.6045 40.54 41.5 40.54C40.9175 40.54 40.3948 40.2891 40.0293 39.8916C38.6209 40.9271 36.8822 41.54 35 41.54C30.3058 41.5399 26.5002 37.7343 26.5 33.04C26.5 28.3457 30.3057 24.5401 35 24.54H39.5V19.54C39.5 17.3309 37.7092 15.54 35.5 15.54C33.291 15.5401 31.5 17.331 31.5 19.54V20.3887C31.4999 21.4931 30.6045 22.3887 29.5 22.3887C28.3956 22.3886 27.5002 21.4931 27.5 20.3887V19.54C27.5 15.1218 31.0818 11.5401 35.5 11.54ZM35 28.54C32.5148 28.5401 30.5 30.5548 30.5 33.04C30.5002 35.5251 32.5149 37.5399 35 37.54C37.4852 37.54 39.4999 35.5252 39.5 33.04V28.54H35Z" fill="currentColor"/>
<path d="M9.20608 11.0342C10.2319 6.44818 16.7681 6.44811 17.794 11.0342L23.9522 38.5635C24.1932 39.6414 23.5144 40.711 22.4366 40.9521C21.3587 41.1932 20.289 40.5144 20.0479 39.4365L17.6016 28.5H9.39847L6.95218 39.4365C6.71107 40.5144 5.64139 41.1932 4.5635 40.9521C3.48562 40.711 2.80685 39.6414 3.04788 38.5635L9.20608 11.0342ZM13.5 11.5947C13.3808 11.5947 13.29 11.6316 13.2383 11.6699C13.2045 11.695 13.145 11.7479 13.1094 11.9072L10.293 24.5H16.7071L13.8907 11.9072C13.855 11.7479 13.7956 11.695 13.7617 11.6699C13.71 11.6316 13.6192 11.5947 13.5 11.5947Z" fill="currentColor"/>
</svg>
