<svg width="48" height="48" viewBox="0 0 48 48" fill="none" xmlns="http://www.w3.org/2000/svg">
<path d="M40.1865 16.9639C40.1864 15.5349 39.4241 14.2145 38.1865 13.5L26 6.46386C24.7624 5.7494 23.2376 5.7494 22 6.46386L9.81348 13.5C8.57594 14.2145 7.81356 15.5349 7.81348 16.9639V31.0361C7.81356 32.4651 8.57594 33.7855 9.81348 34.5L22 41.5361C23.2376 42.2506 24.7624 42.2506 26 41.5361L38.1865 34.5C39.4241 33.7855 40.1864 32.4651 40.1865 31.0361V16.9639ZM44.1865 31.0361C44.1864 33.8941 42.6616 36.5348 40.1865 37.9639L28 45C25.5248 46.4291 22.4752 46.4291 20 45L7.81348 37.9639C5.33839 36.5348 3.81356 33.8941 3.81348 31.0361V16.9639C3.81356 14.1059 5.33839 11.4652 7.81348 10.0361L20 2.99999C22.4752 1.57093 25.5248 1.57093 28 2.99999L40.1865 10.0361C42.6616 11.4652 44.1864 14.1059 44.1865 16.9639V31.0361Z" fill="currentColor"/>
<path d="M29 24C29 21.2386 26.7614 19 24 19C21.2386 19 19 21.2386 19 24C19 26.7614 21.2386 29 24 29C26.7614 29 29 26.7614 29 24ZM33 24C33 28.9706 28.9706 33 24 33C19.0294 33 15 28.9706 15 24C15 19.0294 19.0294 15 24 15C28.9706 15 33 19.0294 33 24Z" fill="currentColor"/>
</svg>
