<svg width="48" height="48" viewBox="0 0 48 48" fill="none" xmlns="http://www.w3.org/2000/svg">
<path d="M19 12C19 9.79086 17.2091 8 15 8H12C9.79086 8 8 9.79086 8 12V18C8 20.2091 9.79086 22 12 22H15C17.2091 22 19 20.2091 19 18V12ZM23 18C23 22.4183 19.4183 26 15 26H12C7.58172 26 4 22.4183 4 18V12C4 7.58172 7.58172 4 12 4H15C19.4183 4 23 7.58172 23 12V18Z" fill="currentColor"/>
<path d="M19 36C19 33.7909 17.2091 32 15 32H12C9.79086 32 8 33.7909 8 36C8 38.2091 9.79086 40 12 40H15C17.2091 40 19 38.2091 19 36ZM23 36C23 40.4183 19.4183 44 15 44H12C7.58172 44 4 40.4183 4 36C4 31.5817 7.58172 28 12 28H15C19.4183 28 23 31.5817 23 36Z" fill="currentColor"/>
<path d="M40 12C40 9.79086 38.2091 8 36 8H33C30.7909 8 29 9.79086 29 12C29 14.2091 30.7909 16 33 16H36C38.2091 16 40 14.2091 40 12ZM44 12C44 16.4183 40.4183 20 36 20H33C28.5817 20 25 16.4183 25 12C25 7.58172 28.5817 4 33 4H36C40.4183 4 44 7.58172 44 12Z" fill="currentColor"/>
<path d="M40 30C40 27.7909 38.2091 26 36 26H33C30.7909 26 29 27.7909 29 30V36C29 38.2091 30.7909 40 33 40H36C38.2091 40 40 38.2091 40 36V30ZM44 36C44 40.4183 40.4183 44 36 44H33C28.5817 44 25 40.4183 25 36V30C25 25.5817 28.5817 22 33 22H36C40.4183 22 44 25.5817 44 30V36Z" fill="currentColor"/>
</svg>
