<svg width="48" height="48" viewBox="0 0 48 48" fill="none" xmlns="http://www.w3.org/2000/svg">
<path d="M34.5 23C29.8056 23 26 19.1944 26 14.5C26 9.80558 29.8056 6 34.5 6C39.1944 6 43 9.80558 43 14.5C43 19.1944 39.1944 23 34.5 23Z" fill="currentColor"/>
<path d="M13.5 23C8.8056 23 5.00002 19.1944 5.00002 14.5C5.00002 9.80558 8.8056 6 13.5 6C18.1944 6 22 9.80558 22 14.5C22 19.1944 18.1944 23 13.5 23Z" fill="currentColor"/>
<path d="M47.5 34.5714C47.5 35.8433 46.9589 36.9039 46.1746 37.7208C45.4085 38.5188 44.3743 39.1301 43.2217 39.5958C40.9116 40.5292 37.821 41 34.5 41C31.179 41 28.0884 40.5292 25.7783 39.5958C24.6257 39.1301 23.5915 38.5188 22.8254 37.7208C22.0411 36.9039 21.5 35.8433 21.5 34.5714C21.5 33.3509 21.9998 32.2044 22.7022 31.2344C23.413 30.2528 24.4003 29.3527 25.56 28.5907C27.8805 27.0659 31.0361 26 34.5 26C37.9639 26 41.1195 27.0659 43.44 28.5907C44.5997 29.3527 45.587 30.2528 46.2978 31.2344C47.0002 32.2044 47.5 33.3509 47.5 34.5714Z" fill="currentColor"/>
<path d="M14 26C16.7146 26 19.2389 26.6567 21.3213 27.6738C20.2968 28.4877 19.4092 29.3796 18.7109 30.3281C17.7113 31.6861 17 33.2913 17 35C17 36.7805 17.7697 38.2655 18.8857 39.4092C19.234 39.766 19.6218 40.096 20.041 40.4014C18.226 40.7982 16.1621 41 14 41C10.679 41 7.58835 40.5291 5.27832 39.5957C4.12576 39.13 3.09127 38.5186 2.3252 37.7207C1.54095 36.9038 1 35.843 1 34.5713C1.00004 33.3508 1.49977 32.2043 2.20215 31.2344C2.91287 30.2529 3.90001 29.3528 5.05957 28.5908C7.38009 27.0661 10.5361 26 14 26Z" fill="currentColor"/>
</svg>
