<svg width="48" height="48" viewBox="0 0 48 48" fill="none" xmlns="http://www.w3.org/2000/svg">
<path fill-rule="evenodd" clip-rule="evenodd" d="M30 39H8C4.68629 39 2 36.3137 2 33V15C2 11.6863 4.68629 9 8 9H30C33.3137 9 36 11.6863 36 15V20.8662L43.8086 15.4629C45.6441 14.1927 47.9998 15.6882 48 18.124V29.876C47.9998 32.3118 45.6441 33.8073 43.8086 32.5371L36 27.1328V33C36 36.3137 33.3137 39 30 39ZM30 35H8C6.89543 35 6 34.1046 6 33V15C6 13.8954 6.89543 13 8 13H30C31.1046 13 32 13.8954 32 15V33C32 34.1046 31.1046 35 30 35ZM44 27.8047L38.501 23.999L44 20.1943V27.8047Z" fill="currentColor"/>
</svg>
