<svg width="48" height="48" viewBox="0 0 48 48" fill="none" xmlns="http://www.w3.org/2000/svg">
<path d="M32 7C33.1046 7 34 7.89543 34 9V39C34 40.1046 33.1046 41 32 41C30.8954 41 30 40.1046 30 39V9C30 7.89543 30.8954 7 32 7ZM16 11C17.1046 11 18 11.8954 18 13V35C18 36.1046 17.1046 37 16 37C14.8954 37 14 36.1046 14 35V13C14 11.8954 14.8954 11 16 11ZM24 13C25.1046 13 26 13.8954 26 15V33C26 34.1046 25.1046 35 24 35C22.8954 35 22 34.1046 22 33V15C22 13.8954 22.8954 13 24 13ZM8 17C9.10457 17 10 17.8954 10 19V28C10 29.1046 9.10457 30 8 30C6.89543 30 6 29.1046 6 28V19C6 17.8954 6.89543 17 8 17ZM40 17C41.1046 17 42 17.8954 42 19V28C42 29.1046 41.1046 30 40 30C38.8954 30 38 29.1046 38 28V19C38 17.8954 38.8954 17 40 17Z" fill="currentColor"/>
</svg>
