<svg width="48" height="48" viewBox="0 0 48 48" fill="none" xmlns="http://www.w3.org/2000/svg">
<path d="M32.7576 12.5856C33.5387 11.8049 34.8048 11.8047 35.5857 12.5856C36.3666 13.3666 36.3664 14.6327 35.5857 15.4138L26.9139 24.0856L35.5857 32.7575C36.3667 33.5386 36.3668 34.8046 35.5857 35.5856C34.8047 36.3666 33.5386 36.3666 32.7576 35.5856L24.0857 26.9138L15.4139 35.5856C14.6328 36.3666 13.3668 36.3666 12.5857 35.5856C11.8047 34.8046 11.8048 33.5386 12.5857 32.7575L21.2576 24.0856L12.5857 15.4138C11.805 14.6327 11.8049 13.3666 12.5857 12.5856C13.3667 11.8047 14.6328 11.8049 15.4139 12.5856L24.0857 21.2575L32.7576 12.5856Z" fill="currentColor"/>
</svg>
