<svg width="48" height="48" viewBox="0 0 48 48" fill="none" xmlns="http://www.w3.org/2000/svg">
<path d="M35.0409 9.58579C35.8219 8.80474 37.0889 8.80474 37.87 9.58579C38.6507 10.3668 38.6508 11.633 37.87 12.4139L26.5555 23.7274L37.87 35.0409C38.651 35.8219 38.651 37.0889 37.87 37.87C37.089 38.6508 35.8229 38.6506 35.0418 37.87L23.7274 26.5555L12.4139 37.87C11.633 38.6508 10.3668 38.6507 9.58579 37.87C8.80474 37.0889 8.80474 35.8219 9.58579 35.0409L20.8993 23.7274L9.58579 12.4139C8.80476 11.6329 8.80481 10.3668 9.58579 9.58579C10.3668 8.80474 11.6329 8.80474 12.4139 9.58579L23.7274 20.8983L35.0409 9.58579Z" fill="currentColor"/>
</svg>
